<svg xmlns="http://www.w3.org/2000/svg" viewBox="0 0 279.15 307.68"><defs><style>.cls-1{fill:#fff;}.cls-2{fill:#1d1d1b;}.cls-3{fill:#eaeaea;}.cls-4{fill:#85af57;}.cls-5{fill:#f9c179;}.cls-6{fill:#c7635d;}.cls-7{fill:#faaa94;}.cls-8{fill:#f8bb5b;}.cls-9{fill:#3c3c3b;}.cls-10{fill:#748e8f;}.cls-11{fill:#87a3a6;}.cls-12{fill:#bb4646;}.cls-13{fill:#b74933;}.cls-14{fill:#4c1c1c;}</style></defs><g id="Layer_2" data-name="Layer 2"><g id="graphics"><circle class="cls-1" cx="131.26" cy="155.21" r="126.24"/><path class="cls-1" d="M193.08,58.44s-4.93-23.61-4-35.49,4.48-21,5.25-19.76.31,6.18.31,6.18,2.62-9.42,4-8.49.15,5.4.15,5.4,3.55-6.64,4.79-5.56S203.27,6,203.27,6s3.86-5.09,4.94-3.86-.16,5.4-2,9-2.78,5.25-2.78,5.25,6.18-3.55,7.41-2.31-2.16,4.47-2.16,4.47L201,26.19l7.26,24.69,2.62,6.94-8.49,3.4Z"/><path class="cls-1" d="M92.94,37.1s-1.41-3.21.35-3.41,3.42,2.66,3.42,2.66l2.86-1.21s-.34-11.66,3-10.8,2.24,6.88,2.24,6.88S106.91,25,108,25.87s.47,6.71.47,6.71.55-3.89,2.46-3.15.4,5.49.4,5.49l-2.17,4.29L97.31,42.37Z"/><polygon class="cls-1" points="34.79 280.53 34.56 294.95 47.48 295.88 48.33 294.03 50.89 280.86 41.61 277.4 34.79 280.53"/><path class="cls-1" d="M152,275.81l1.83,11.31,12.42,3.5s1.55-14.79.21-17.36-8.94-2.35-8.94-2.35Z"/><polygon class="cls-1" points="252.35 283.66 260.74 288.35 272.59 283.32 271.36 281.64 260.4 271.47 253.02 276.95 252.35 283.66"/><path class="cls-2" d="M98.82,41l-.62-1.19c-1-1.89-2.43-4.74-4-5.76l-.76-.51.87-.27c1.66-.5,3.34-1,5-1.41l.61-.16-.07.64c-.12.9-.22,1.85-.32,2.79-.16,1.52-.33,3.09-.55,4.54Zm-3.43-7.13a17.65,17.65,0,0,1,3,4.34c.13-1,.24-2.12.36-3.17L99,32.87C97.77,33.19,96.58,33.52,95.39,33.88Z"/><path class="cls-2" d="M131.1,280.45a125.41,125.41,0,0,1-73.18-23.36,126.82,126.82,0,0,1-21.76-19.65,125.15,125.15,0,0,1-30.84-71.8c-.1-1.12-.19-2.24-.27-3.37-.16-2.73-.25-5.46-.25-8.12,0-.3,0-.59,0-.89A125.14,125.14,0,0,1,16.87,100.2q.09-.21.18-.39l.12-.23c.43-.93.89-1.83,1.35-2.74q2.18-4.26,4.6-8.23c.39-.65.79-1.29,1.2-1.94l1-1.51c1.3-2,2.69-4,4.13-5.94q.16-.24.36-.48v0c.12-.17.26-.34.4-.52a.48.48,0,0,1,.11-.15c.17-.24.39-.52.61-.81.73-.95,1.43-1.84,2.13-2.69,1-1.22,2.05-2.48,3.17-3.76S38.6,68.14,39.74,67c.2-.22.42-.44.65-.67l0,0,.58-.6c.33-.33.63-.64.94-.94s.81-.8,1.22-1.19c.21-.22.43-.43.65-.64l.23-.23.76-.71.31-.29.86-.79c.24-.22.48-.44.73-.65s.62-.56.94-.84l.09-.08c.95-.83,1.91-1.66,2.89-2.47l.09-.07.43-.36.58-.47a125.67,125.67,0,0,1,40.71-22l.66-.2-.1.67c-.22,1.67.57,5.25,1.26,8.41.86,3.94,1.15,5.49.77,6.07C93.4,51.34,88,56,78.39,63.1,82.74,66.16,89,71.47,89.56,73.44a.43.43,0,0,1,0,0,120.63,120.63,0,0,0,15.55-19c4.47-7,9-18,8.39-20.26a.34.34,0,0,0-.09-.18s-.87,0-3.74,5.17l.09.1a.78.78,0,0,1,.2.58.7.7,0,0,1-.27.5.75.75,0,0,1-1-.08,6.86,6.86,0,0,0-6.26-2.52.74.74,0,0,1-.25-1.46,6.8,6.8,0,0,1,.86-.09c0-.54.09-1.17.15-1.86.08-1,.17-2.05.24-3.13l0-.34,1.52-.3-.15.65a49.78,49.78,0,0,0-.86,5,7.7,7.7,0,0,1,2.44.58c.06-.27.13-.56.21-.86.42-1.69.94-3.79,1.2-5.64l0-.3.31-.06c.5-.1,1-.19,1.48-.27l1-.15-.52.82a34.77,34.77,0,0,0-2.85,6.85A8.77,8.77,0,0,1,109,38.45l0-.05c.72-1.68,2.88-6.8,2.44-8.56l-.12-.46.47-.07a129,129,0,0,1,19.31-1.46A126.56,126.56,0,0,1,190.2,42.5l.2.11,0,.22c.55,4.22,1.32,8.65,2.35,13.54a100,100,0,0,0,4.67,15.08,163.14,163.14,0,0,1,15.28-7c-.88-2.38-1.9-5.14-3-8.09l-.54-1.47,1.22,1a131.22,131.22,0,0,1,12.62,11.71l.62.67c1.17,1.26,2.33,2.56,3.45,3.86,2.71,3.17,5.27,6.49,7.62,9.86.35.49.68,1,1,1.47l.11.16.14.06v.17c1.3,1.92,2.56,3.91,3.74,5.91h.18V90a126.25,126.25,0,0,1-11.21,144.24,127.57,127.57,0,0,1-18.82,18.57,126.25,126.25,0,0,1-37.15,20.57c-1.8.62-3.72,1.24-5.71,1.83-1.24.37-2.61.75-4.17,1.16l-.11,0-9.74.23c.07.48.14,1,.2,1.43l.06.41-.41.08A127.84,127.84,0,0,1,131.1,280.45ZM17.89,100.08l-.06.12a3.18,3.18,0,0,0-.16.32,124.15,124.15,0,0,0-12,52.7c0,.36,0,.64,0,.93,0,2.64.08,5.35.25,8.06.08,1.13.16,2.24.27,3.35a124.27,124.27,0,0,0,30.62,71.31,126,126,0,0,0,21.62,19.52,124.52,124.52,0,0,0,72.67,23.19,126.45,126.45,0,0,0,21.22-1.79c-.07-.49-.14-1-.22-1.49l-.07-.49,10.66-.25c1.52-.39,2.88-.77,4.12-1.14,2-.59,3.88-1.2,5.66-1.82A125.71,125.71,0,0,0,253.42,182a126.56,126.56,0,0,0,3.11-27.89,125.25,125.25,0,0,0-17.27-63.56h0l-.12-.21c-1.14-1.95-2.36-3.89-3.63-5.77l-.13.13-.2-.63-.13-.2c-.33-.49-.67-1-1-1.46-2.33-3.35-4.88-6.64-7.57-9.8-1.11-1.29-2.26-2.58-3.42-3.83l-.63-.67A126.78,126.78,0,0,0,211.1,57.53l2.58,7,.15.41-.41.15a154.37,154.37,0,0,0-16,7.36l-.43.23-.18-.45a102.86,102.86,0,0,1-4.89-15.68c-1-4.83-1.78-9.21-2.33-13.39A125.63,125.63,0,0,0,131.1,28.71a128.19,128.19,0,0,0-18.75,1.39,13.77,13.77,0,0,1-1,4.82c1.34-1.82,2-1.93,2.49-1.7a1.11,1.11,0,0,1,.55.73c.81,2.91-4.56,14.76-8.5,21A123.73,123.73,0,0,1,89.62,74.69l-.65.66-.09-.93a4.29,4.29,0,0,0-.15-.73C88.25,72.07,82,66.62,77.4,63.46l-.5-.34.49-.36c9.65-7.12,15.34-12,16.92-14.42.19-.44-.41-3.19-.9-5.4a44.65,44.65,0,0,1-1.31-8A125,125,0,0,0,52.27,56.57l-.56.47-.45.36-.09.07c-1,.8-1.92,1.62-2.86,2.45l-.09.08c-.31.28-.63.55-.93.83s-.49.43-.72.65l-.86.79a3.83,3.83,0,0,0-.29.28l-1,.92c-.22.2-.45.42-.67.64-.41.4-.81.79-1.21,1.2s-.61.6-.91.91l-.46.47h0l-.13.14c-.24.23-.47.46-.69.7-1.14,1.19-2.29,2.44-3.51,3.83s-2.17,2.52-3.15,3.73c-.7.85-1.39,1.72-2.11,2.67-.22.28-.43.55-.64.84l-.1.13c-.09.12-.19.24-.27.36v.05l-.14.14c-.09.12-.21.27-.31.42l-.06.08c-1.39,1.88-2.77,3.86-4.06,5.85-.33.5-.65,1-1,1.5s-.8,1.28-1.19,1.92c-1.6,2.62-3.13,5.35-4.54,8.11-.49,1-1,1.9-1.39,2.83ZM108.6,30.73c0,.22-.07.45-.11.68.12-.25.24-.5.36-.73Z"/><path class="cls-2" d="M150.53,265.37a.55.55,0,0,1-.44-.19c-7.46-7.95-19.35-27.92-19.82-28.83l-.16-.32.28-.22c.1-.07,14.9-9.76,15.54-10l.41-.18.17.41c3.12,7.72,7.75,17.84,13.39,29.28,1.12,2.27-5.43,7.77-7.38,9.12A4.21,4.21,0,0,1,150.53,265.37Zm-19.3-29.08c1.59,2.76,12.41,20.7,19.4,28.2,1.11-.25,6.34-4.49,8.05-7.34.58-1,.5-1.37.44-1.49-5.53-11.22-10.1-21.19-13.23-28.87C143.69,228.16,133.26,234.92,131.23,236.29Z"/><path d="M154,271c-1,.69-6.47-7.65-7-9.1,0,0,8.63-6.33,11.58-8.25,0,0,12.86-3.12,16.34-2.72,1.22.14,4.07,4.06,3.08,4.75C176.37,256.9,154,271,154,271Z"/><path class="cls-3" d="M151.46,268.77c7-4.46,16.45-10.32,20.4-12.87-.07-.08-1.48-2.43-2.81-4.38A26.24,26.24,0,0,1,175,251c1.21.14,4.06,4.05,3.07,4.75-1.68,1.19-24,15.32-24,15.32C153.48,271.42,151.46,268.77,151.46,268.77Z"/><ellipse class="cls-3" cx="153.77" cy="261.79" rx="1.93" ry="1.92"/><path class="cls-4" d="M30.5,135.93c26.28,8,83.52,21.92,93.58,39.87,16.78,29.91,35,71.43,35,71.43l-18.65,8.53c.65,2.63-21.29-43.89-40.88-67.3-3.74-4.47-73.18-13.62-73.18-13.62Z"/><path class="cls-2" d="M37.93,298.74c-.51,0-.93,0-1.24,0-1.57-.1-2.2-.35-2.24-.87C33.53,287,36.62,264,36.82,263l.07-.35h.36c.12,0,17.81,1.44,18.47,1.6l.44.11-.13.44c-2.35,8-5,18.77-7.7,31.22C47.86,298.23,41.21,298.74,37.93,298.74Zm-2.63-1.11c1,.48,7.79.34,10.91-.85,1.06-.41,1.24-.77,1.27-.9,2.64-12.22,5.26-22.85,7.58-30.8-2.59-.27-15-1.34-17.45-1.51C37.14,266.71,34.48,287.46,35.3,297.63Z"/><path d="M33.89,304.85c-1.2-.06-.33-10,.19-11.42,0,0,10.73.3,14.25.6,0,0,12.05,5.41,14.55,7.86.86.85.67,5.68-.54,5.62C60.27,307.42,33.89,304.85,33.89,304.85Z"/><path class="cls-3" d="M33.29,301.5c8.32.81,19.36,2,24.06,2.37,0-.11.35-2.81.52-5.17a26.63,26.63,0,0,1,5,3.2c.87.85.67,5.68-.54,5.62-2.06-.09-28.45-2.66-28.45-2.66C33.22,304.82,33.29,301.5,33.29,301.5Z"/><ellipse class="cls-3" cx="39.45" cy="297.43" rx="1.93" ry="1.92"/><path class="cls-4" d="M29.33,140.82c17.86,33.92,36.13,54.45,33.91,77.75a647.4,647.4,0,0,1-10.4,66.74L32.7,282.16s4.43-28.89,3.81-57.19c-.26-11.35-18-35.93-26.9-50.73C-.56,157.33,9.7,135,9.7,135Z"/><path class="cls-2" d="M89,75.35l-.09-.93a4.29,4.29,0,0,0-.15-.73C88.25,72.07,82,66.62,77.4,63.46l-.5-.34.49-.36c9.65-7.12,15.34-12,16.92-14.42.19-.44-.41-3.19-.9-5.4-.71-3.23-1.51-6.89-1.27-8.71.17-1.22.82-1.41,1.19-1.41a3,3,0,0,1,1.39.52c1.33.88,2.52,2.81,3.63,4.88.13-1,.24-2.12.36-3.17s.2-1.9.32-2.81c.47-3.68,1.17-7.62,3.53-7.9a1.15,1.15,0,0,1,.94.31c.78.73,1,2.71.77,6.61-.06,1.09-.15,2.18-.24,3.16s-.14,1.62-.17,2.23v.17a7.86,7.86,0,0,1,4.89,2.25l0,0c3.16-5.73,4.31-6.15,5-5.8a1.11,1.11,0,0,1,.55.73c.81,2.91-4.56,14.76-8.5,21h0A123.73,123.73,0,0,1,89.62,74.69ZM78.39,63.1C82.74,66.16,89,71.47,89.56,73.44a.43.43,0,0,1,0,0,120.63,120.63,0,0,0,15.55-19h0c4.47-7,9-18,8.39-20.26a.34.34,0,0,0-.09-.18s-.87,0-3.74,5.17l.09.1a.78.78,0,0,1,.2.58.7.7,0,0,1-.27.5.75.75,0,0,1-1-.08,6.86,6.86,0,0,0-6.26-2.52.74.74,0,0,1-.25-1.46,6.8,6.8,0,0,1,.86-.09c0-.54.09-1.17.15-1.86.08-1,.17-2.05.24-3.13.25-4.26-.13-5.58-.51-5.93a.27.27,0,0,0-.24-.08c-1.66.2-2.34,3.72-2.77,7.15-.12.9-.22,1.85-.32,2.79-.16,1.52-.33,3.09-.55,4.54L98.82,41l-.62-1.19c-1-1.89-2.43-4.74-4-5.76a2.06,2.06,0,0,0-.95-.37c-.17,0-.25.41-.29.65-.22,1.67.57,5.25,1.26,8.41.86,3.94,1.15,5.49.77,6.07C93.4,51.34,88,56,78.39,63.1Zm30.75-23.23Zm-6.87-3Z"/><path class="cls-1" d="M60.13,96.22a.62.62,0,0,1-.33-.08.54.54,0,0,1-.16-.68c.47-1.09-1-5.12-2.1-8.36-1.88-5.31-2.89-8.38-1.51-9,.91-.72,3.2-2.33,6.34-4.55,4.09-2.88,9.7-6.83,15-10.77l.25-.19.25.18c4.35,3,11.06,8.64,11.67,10.69a4.22,4.22,0,0,1,.18.9l0,.2-.14.15c-1.58,1.59-3.19,3.18-4.81,4.71C79.09,84.86,63.09,96.22,60.13,96.22ZM77.66,63.64C72.4,67.52,66.9,71.4,62.87,74.24c-3.07,2.17-5.49,3.88-6.34,4.55l-.12.07c-.77.3,1,5.27,1.94,8,1.23,3.47,2.4,6.77,2.22,8.45,2.65-1,15.33-8.56,23.64-16.49,1.56-1.47,3.12-3,4.64-4.54a4.28,4.28,0,0,0-.12-.54C88.25,72.09,82.22,66.82,77.66,63.64Z"/><path class="cls-2" d="M107,38l-.49-.24a7.13,7.13,0,0,0-3-.74H103l.06-.47A53.64,53.64,0,0,1,104,31c.72-3.16,1.58-4.9,2.63-5.33a1.46,1.46,0,0,1,1.39.17c.83.54,1,2,.67,4.55-.27,1.9-.8,4-1.22,5.73-.13.5-.24,1-.33,1.36Zm-3-1.82a7.7,7.7,0,0,1,2.44.58c.06-.27.13-.56.21-.86.42-1.69.94-3.79,1.2-5.64h0c.42-2.91-.05-3.56-.28-3.7a.62.62,0,0,0-.6-.1c-.34.14-1.23.88-2.11,4.72A49.78,49.78,0,0,0,103.94,36.22Z"/><path class="cls-2" d="M109.3,40l-.48-.5a7.93,7.93,0,0,0-2.32-1.71l-.34-.16.11-.36a38.72,38.72,0,0,1,3.06-7.41c.52-.84,1-1.27,1.52-1.3a1.22,1.22,0,0,1,1.31.73h0l.09.33c.46,1.81-1.08,5.82-2.48,9.11l-.26.63Zm-2.09-2.82A8.77,8.77,0,0,1,109,38.45l0-.05c.69-1.63,2.76-6.5,2.47-8.39l0-.18c-.07-.32-.21-.41-.52-.4,0,0-.31,0-.85.9A35.11,35.11,0,0,0,107.21,37.19Z"/><path class="cls-2" d="M108.68,41.18v-.92a7.58,7.58,0,0,0-2.06-1.71l-.37.74v-.94a6.35,6.35,0,0,0-3.82-.6.74.74,0,0,1-.25-1.46,8.09,8.09,0,0,1,.93-.09h.77a7.61,7.61,0,0,1,2.39.54v0l.62.3.29.14.09.05h0a8.89,8.89,0,0,1,1.86,1.36v0l.35.38,0,0,.13.14h0l.13.15a.78.78,0,0,1,.2.58.74.74,0,0,1-1,.64Zm-6.41-4.29Z"/><path class="cls-2" d="M109.43,40a.31.31,0,0,1-.2.07A.31.31,0,0,1,109,40a7.31,7.31,0,0,0-6.66-2.66.31.31,0,1,1-.09-.61,6.69,6.69,0,0,1,1.18-.08h0a7.71,7.71,0,0,1,3.23.78h0a8.38,8.38,0,0,1,2.46,1.8v0c.11.11.21.23.32.35A.32.32,0,0,1,109.43,40Z"/><path class="cls-5" d="M86.61,79.11a1.1,1.1,0,0,1-.69-.1c-5.25,6.25-18,14.29-29.53,19.12s-21.8,6.46-21.7-.31c0-.56,0-1.13,0-1.67,0,0,0,0,0,0a36.85,36.85,0,0,1,1.66-10.56c.07-.23.15-.45.24-.67,0,0,0,0,0,0a13.71,13.71,0,0,1,3.88-5.72.54.54,0,0,1,.12-.09h0s0,0,0,0h0a12.91,12.91,0,0,1,2.42-1.58q.49-.26,1-.48l1-.4a31.84,31.84,0,0,1,3.83-1.1l.13,0,.43-.09.29-.07.61-.13h0a80.4,80.4,0,0,0,11.7-3,22,22,0,0,0,8.64-5.7,2.27,2.27,0,0,1-.62-1.14c.11-1.71,3.66-4.23,3.66-4.23a7.53,7.53,0,0,1,4.58,1.44c4.39,3,11,9.06,11.57,10.92a7.63,7.63,0,0,1,0,1.17C90.26,77,88.18,78.57,86.61,79.11Z"/><path class="cls-2" d="M51.17,79.21a.3.3,0,0,1-.3-.24c-1.62-7.07-6.72-16-9.16-20.27a.29.29,0,0,1,.11-.41.3.3,0,0,1,.42.11c2.46,4.31,7.59,13.28,9.23,20.44a.31.31,0,0,1-.23.36Z"/><path class="cls-6" d="M20.88,78.37a.28.28,0,0,1-.18-.06.3.3,0,0,1-.07-.42C24.9,72,28.27,62.31,29.89,57.66a.31.31,0,0,1,.58.2c-1.63,4.68-5,14.43-9.34,20.39A.32.32,0,0,1,20.88,78.37Z"/><path class="cls-6" d="M27.91,67.44c-1.5,5-4,9.74-3.79,9.86,1.36,1,13.29,1.53,17.46,1.83,1.4.1,6.21,0,7.74,0,1.32,0-1.65-8.11-2.55-10.19-.42-1-.77-7.88-.94-8.16s-9.37-1.28-10.28-2.1-5.22-2.07-5.37-.92A57.67,57.67,0,0,1,27.91,67.44Z"/><path class="cls-6" d="M26.05,67.25a55.39,55.39,0,0,1-5.66,10.66.48.48,0,0,0,.11.66.47.47,0,0,0,.66-.11,58,58,0,0,0,5.92-11.21Z"/><path class="cls-6" d="M47,67.25H27.91l-.1.31c-1.5,5-4,9.74-3.79,9.86,1.36,1,13.29,1.53,17.46,1.83,1.4.1,6.21,0,7.73,0,1.33,0-1.64-8.11-2.54-10.19a4,4,0,0,1-.18-.78A54.2,54.2,0,0,1,50.6,79.13a.48.48,0,0,0,.47.37h.1a.47.47,0,0,0,.36-.57A56.94,56.94,0,0,0,47,67.25Z"/><path class="cls-7" d="M44.11,47.28c-3-.64-10.13,1.26-12.18,7.84-5.41-4.82-7.55,2.81-1.33,5.14.36.28,3.42,12.49,2.72,17.88-.13,1,9.68,1.48,9.86.21.32.05-1.94-7.47-1.63-7.55,5.16-1.41,9.28-3.9,9.85-8.82C52.61,51.56,47.3,48,44.11,47.28Z"/><path class="cls-2" d="M41.72,59.88a.83.83,0,0,1-1,.62.82.82,0,0,1-.63-1,.83.83,0,0,1,1.62.36Z"/><path class="cls-2" d="M43.53,63.82a.31.31,0,1,1,0-.61c1-.05,1.59-.3,1.7-.54s0-.29-.16-.51a1.76,1.76,0,0,1-.33-1.44c.11-.49.47-2.14.53-2.37a.32.32,0,0,1,.39-.2.3.3,0,0,1,.2.38c0,.13-.25,1.07-.52,2.32a1.16,1.16,0,0,0,.22.94,1.06,1.06,0,0,1,.22,1.14c-.33.7-1.54.86-2.23.89Z"/><path class="cls-6" d="M31.93,55.12c2,1.44,12.83.37,17-3.21,1.49-1.27,1.86,7.24,2.63,7.21.57,0,.47-2.86.33-5a10.14,10.14,0,0,0-10.46-9.36C33.78,45,26.37,51.14,31.93,55.12Z"/><path class="cls-2" d="M48.62,60.57a.83.83,0,0,1-1,.62.82.82,0,0,1-.63-1,.83.83,0,0,1,1.62.36Z"/><path class="cls-2" d="M39.26,56.14c.42-.48,2.15-.25,2.68-.13.37.08.78.28.73.57s-.48.39-.85.43c-.6.05-2.66.09-2.65-.63A.42.42,0,0,1,39.26,56.14Z"/><path class="cls-2" d="M46.59,57c.53-.41,2.17.07,2.65.27s.7.4.57.67-.58.31-.94.29c-.61,0-2.64-.31-2.44-1A.44.44,0,0,1,46.59,57Z"/><path class="cls-6" d="M33,34.24A4,4,0,0,1,36.43,34a6.6,6.6,0,0,1,2.69,2.91,15.21,15.21,0,0,1,1.74,5.53,5.43,5.43,0,0,1-.41,3.19A2.46,2.46,0,0,1,37.71,47l-3.38-2.74a16.33,16.33,0,0,1-2.94-2.81,5.44,5.44,0,0,1-1.18-3.79A4.77,4.77,0,0,1,33,34.24Z"/><path class="cls-6" d="M29.57,58.49a.3.3,0,0,1-.18-.06c-1.23-1-1.43-2.17-1-2.87a1.39,1.39,0,0,1,1.92-.35.3.3,0,0,1,.14.41.3.3,0,0,1-.41.14c-.51-.24-.93-.2-1.13.12s-.08,1.33.85,2.06a.31.31,0,0,1-.19.55Z"/><path class="cls-6" d="M39.19,48.51h-.06c-.46-.1-11.08-2.58-10.68-9.61a5.95,5.95,0,0,1,6.22-5.45.31.31,0,0,1,.27.35.31.31,0,0,1-.35.26,5.35,5.35,0,0,0-5.53,4.88c-.36,6.5,10.09,9,10.2,9a.31.31,0,0,1-.07.61Z"/><path class="cls-6" d="M51.61,54.69h0a.31.31,0,0,1-.25-.36,7.62,7.62,0,0,0-1.12-5.88A9.35,9.35,0,0,0,43.88,45C37.3,43.91,32,49.9,32,50a.31.31,0,1,1-.46-.41c.05-.06,5.59-6.33,12.49-5.15a9.91,9.91,0,0,1,6.71,3.69,8.28,8.28,0,0,1,1.22,6.34A.29.29,0,0,1,51.61,54.69Z"/><path class="cls-2" d="M41,64.78a1.78,1.78,0,0,0,.05.8c.31.9,3.81,1.06,5.17.51a1.34,1.34,0,0,1-.07.18,4,4,0,0,1-1.54,2,2.55,2.55,0,0,1-2.42.2A2.63,2.63,0,0,1,40.91,67C40.72,66.53,40.21,64.91,41,64.78Z"/><path class="cls-1" d="M41,65.58a1.78,1.78,0,0,1-.05-.8h0a1.17,1.17,0,0,1,.49.07,10.31,10.31,0,0,0,3.71.27,1.94,1.94,0,0,1,.59,0,.53.53,0,0,1,.31.17.81.81,0,0,1,.09.8C44.84,66.64,41.34,66.48,41,65.58Z"/><path class="cls-2" d="M52.81,124.18A1,1,0,0,1,52,124a.52.52,0,0,1,0-.69c.71-1,.27-5.2-.08-8.61-.58-5.6-.84-8.82.66-9.12,1.06-.5,3.75-1.57,7.44-3,11.38-4.55,32.55-13,36.77-17,.29-.39.35-3.19.4-5.45.11-5.11.28-8.79,1.42-9.68a1,1,0,0,1,.89-.18c1.82.61,2.79,3.27,3.6,6.4.38-1,.74-2,1.1-3,1.83-5.06,3.53-9.82,6.26-9.53a1.11,1.11,0,0,1,.85.53c.53.84.29,2.6-.32,4.88,1-1.7,2-2.94,3-3.14a1.47,1.47,0,0,1,1.4.48c.85.88.35,2.86-.77,5.41,1.07-1.29,2.14-2.27,2.92-2.14a1.24,1.24,0,0,1,1,.77c.45,1.1-.6,3.24-2.08,5.52,1.73-1.46,2.4-1.42,2.82-1.07a1.06,1.06,0,0,1,.36.83c.11,3-7.9,13.3-13.19,18.41-6.4,6.19-15.22,12.57-26.22,19C73.74,117.3,56.79,124.17,52.81,124.18ZM99.28,71a.22.22,0,0,0-.1,0c-.9.7-1,5.7-1.08,9-.09,4-.17,5.58-.67,6.06-4.35,4.15-24.82,12.32-37,17.2-3.61,1.44-6.45,2.57-7.46,3l-.13,0c-.82.11-.27,5.36,0,8.18.38,3.65.74,7.13.17,8.72,2.82-.36,16.92-4.78,26.87-10.56,10.93-6.35,19.7-12.69,26.05-18.83,6-5.81,13-15.43,12.93-17.76,0-.12,0-.18,0-.19s-1-.08-5.14,4.47l-.58.64-.16-.85c0-.2,0-.2.51-1,4.1-5.52,4.64-7.46,4.38-8.11,0-.09-.11-.19-.37-.23h-.05c-1.13,0-4.83,5.62-5.65,7.14v0l-.19.39-.73-.36.12-.35a.57.57,0,0,1,.06-.12h0c.17-.36.43-.86.72-1.42,1.32-2.54,4.07-7.83,3.1-8.84a.61.61,0,0,0-.6-.23c-1.28.26-3.35,3.88-5.41,9.43l-.82-.27c.18-.62.46-1.46.77-2.41,1-2.9,2.59-7.76,1.88-8.87a.25.25,0,0,0-.22-.14c-2-.27-3.71,4.44-5.34,9-.52,1.43-1,2.91-1.61,4.27l-.51,1.24-.31-1.3c-.59-2.43-1.58-6.5-3.33-7.09Z"/><path class="cls-8" d="M69.77,94.72c1.67.1,9.66,17.29,9.06,20.41a5.14,5.14,0,0,1-5.44,4.33c-2.19-.29-10.53-20.65-9.52-22.32S69.77,94.72,69.77,94.72Z"/><path class="cls-5" d="M69.16,97.37c-2.45-1.07-11.1,5.36-14.1-1-8-17-12.36-27.55-23.82-18.13a137.3,137.3,0,0,1-3.15,26.4L27,104.37a135.9,135.9,0,0,0,3.1-25.23,56,56,0,0,0-4.46,4.56c-.29.33-.58.68-.88,1.07a134.73,134.73,0,0,1-3,23.4l-1.05-.24a131.8,131.8,0,0,0,2.94-21.61,74.39,74.39,0,0,0-4.39,7.27,129.76,129.76,0,0,1-2.71,18.09l-1.05-.24A125.33,125.33,0,0,0,18,96.06C9.55,112.54.08,139.69,0,160.49c0,14.93,52.87-5.92,58.9-11.3,2.73-2.43-1.53-20.15-2-23.33-.12-.73,16.77-5.87,18.3-9C77.34,112.45,70.33,97.87,69.16,97.37ZM34.54,97l-1.06-.24a129.35,129.35,0,0,0,2.84-19.94q.52.18,1,.33A130.13,130.13,0,0,1,34.54,97ZM41,93.33l-1-.24a123.88,123.88,0,0,0,2.29-13.88c.32.27.66.53,1,.77A123.56,123.56,0,0,1,41,93.33Z"/><path class="cls-5" d="M39.93,93.09l1,.24A123.56,123.56,0,0,0,43.22,80c-.34-.24-.68-.5-1-.77A123.88,123.88,0,0,1,39.93,93.09Z"/><path class="cls-5" d="M33.48,96.8l1.06.24a130.13,130.13,0,0,0,2.83-19.85q-.52-.15-1-.33A129.35,129.35,0,0,1,33.48,96.8Z"/><path class="cls-1" d="M31.3,74.21c-.37-.27-.73-.55-1.07-.84,0,1.85,0,3.79-.09,5.77.37-.33.74-.65,1.1-.94C31.27,76.84,31.29,75.5,31.3,74.21Z"/><path class="cls-5" d="M28.09,104.6a137.3,137.3,0,0,0,3.15-26.4c-.36.29-.73.61-1.1.94A135.9,135.9,0,0,1,27,104.37Z"/><path class="cls-5" d="M21.76,108.17a134.73,134.73,0,0,0,3-23.4c-.37.47-.76,1-1.15,1.55a131.8,131.8,0,0,1-2.94,21.61Z"/><path class="cls-5" d="M15.5,111.44l1.05.24a129.76,129.76,0,0,0,2.71-18.09c-.43.79-.87,1.62-1.3,2.47Z"/><path class="cls-8" d="M25.32,69.75c8.38-3,22.45,7,23,11.49.63,5.27-23.48,5.21-26.23,3.28-4.51-3.17,1.1-3.48,0-6.35C21.67,77.11,21,71.29,25.32,69.75Z"/><path class="cls-2" d="M51.71,127.32c-4.11,0-8.22-1.84-11.33-3.72a46.18,46.18,0,0,1-13.9-13.3L27,110c6.19,9.33,20.35,20.26,29.72,15.62l.27.55A11.65,11.65,0,0,1,51.71,127.32Z"/><path class="cls-2" d="M166.65,291.27l-.55-.26c-1.46-.68-8.89-4.14-12.39-4.84l-.31-.06,0-.31c-.28-2.24-.61-4.83-1-7.59-.08-.63-.17-1.26-.27-1.91l-.07-.49,15.33-.36v.45c0,6-.25,11-.65,14.77Zm-12.47-5.89c3.35.77,9.53,3.56,11.73,4.59.34-3.59.54-8.17.58-13.63l-13.46.32c.07.48.14,1,.2,1.43C153.6,280.73,153.91,283.22,154.18,285.38Z"/><path d="M164.53,295.32c-.37,0-.82,0-1.38-.07-.91-.07-2-.22-3.09-.42-2.64-.51-5.82-1.43-6-2.89l0-.15c0-.11,0-.23,0-.37q-.09-.8-.21-1.89l-.52-4.33.59.12c3.6.72,11.11,4.22,12.59,4.91l.27.13,0,.3c-.15,1.52-.33,2.88-.55,4C166.1,295,165.9,295.32,164.53,295.32Zm-10.24-9,.38,3.13c.08.74.15,1.36.21,1.89,0,.13,0,.26.05.38v.14c.06.55,1.74,1.45,5.29,2.13a26.53,26.53,0,0,0,3,.41,7.89,7.89,0,0,0,2.12,0q.27-1.54.48-3.51C164,290,157.77,287.17,154.29,286.3Z"/><path d="M166.79,298s0,.56-.15,1.19a5.07,5.07,0,0,1-.09.54c0,.17-.07.32-.11.46v0a1.53,1.53,0,0,1-.24.54l-.1.09a.14.14,0,0,1-.1,0h0s-23.29-.05-25.11-.15a.44.44,0,0,1-.25-.11.57.57,0,0,1-.12-.15l-.07-.11a2.49,2.49,0,0,1-.13-.36.13.13,0,0,0,0-.06,2.33,2.33,0,0,1,0-.28,6.47,6.47,0,0,1-.06-.66c0-.24,0-.48,0-.73,0,0,0,0,0,0a6.86,6.86,0,0,1,.14-1.12c0-.15.06-.29.1-.42s.08-.24.11-.35,0,0,0,0a1.57,1.57,0,0,1,.21-.41l.08-.1s.05-.06.07-.09l.18-.13c.12-.09.25-.21.4-.34,1-.8,2.63-2.12,4.35-3.52l.07-.06,7.42-6a4.8,4.8,0,0,1,.48.08c3.42.69,10.49,3.94,12.49,4.88l.54.25A36.14,36.14,0,0,1,166.79,298Z"/><path class="cls-3" d="M166.79,298c-7.34,0-17.09,0-21.24,0,0-.1.27-4.2.34-6.27-2.29,1.65-4.18,3.41-5,4.06s-1.09,4.9,0,5c1.81.1,25.11.15,25.11.15C166.56,300.91,166.79,298,166.79,298Z"/><ellipse class="cls-3" cx="161.76" cy="293.9" rx="1.7" ry="1.68"/><path class="cls-3" d="M153.19,291.22l-2-2.12a1,1,0,0,1,0-1.37h0a1,1,0,0,1,1.38,0l2,2.12a1,1,0,0,1,0,1.37h0A1,1,0,0,1,153.19,291.22Z"/><path class="cls-3" d="M150.6,293.24l-2-2.12a1,1,0,0,1,0-1.37h0a1,1,0,0,1,1.38,0l2,2.12a1,1,0,0,1-.05,1.37h0A1,1,0,0,1,150.6,293.24Z"/><path class="cls-9" d="M241.06,162.53s-3.24,6.71-7.11,13.25a82.65,82.65,0,0,1-4.81,7.37c-2.23,3-12.23,6.58-23.38,10.48-16.52,5.74-35.59,12.11-35.85,18.06,0,.86-.07,1.79-.08,2.78a44.55,44.55,0,0,0-7.59.09l.14.93a44.94,44.94,0,0,1,7.44-.09c0,1.31,0,2.71,0,4.19a40.48,40.48,0,0,0-6,.16l.13.93a36.68,36.68,0,0,1,5.91-.15c0,1.27,0,2.6.08,4a28.34,28.34,0,0,0-3.71.19l.13.93a29.19,29.19,0,0,1,3.6-.18c0,1.38.09,2.8.14,4.25a27.59,27.59,0,0,0-3.09.18l.14.94a25.26,25.26,0,0,1,3-.19c0,.94.08,1.9.12,2.86a47.52,47.52,0,0,0-7.89.07l.14.94a46.27,46.27,0,0,1,7.79-.07c0,1.08.09,2.16.15,3.25a48.14,48.14,0,0,0-8.52,0l.13.93a47.43,47.43,0,0,1,8.43,0l.21,4.07a64,64,0,0,0-12.34.46l.19.92a62.76,62.76,0,0,1,12.2-.45c.08,1.5.16,3,.25,4.47a81.88,81.88,0,0,0-14.6.93l-.7.16.25.91c.25-.06.54-.13.87-.19A82.3,82.3,0,0,1,171,249c.05.74.09,1.47.13,2.19h0c.08,1.35.17,2.66.25,4,0,.34,0,.68.06,1,.08,1.26.16,2.47.24,3.65h0c.37,5.67.72,10.39.93,13.18a22.26,22.26,0,0,1,0,3.33l-5.62.18-4.21-.09h-.27l-9.84.32-2.16.11s-.44-4.78-1.38-11.37h0c-.1-.78-.23-1.6-.34-2.44s-.2-1.42-.3-2.16c-.35-2.56-.72-5.36-1.09-8.32-1-7.78-2-16.68-2.83-25.43-.42-4.59-.76-9.13-1-13.45-.32-5.64-.45-10.9-.32-15.38.39-13.41,37.9-30,63.07-40.89,8.66-3.76,15.86-6.83,19.58-8.88l2.94,2.71Z"/><path class="cls-9" d="M162.38,215.49a43.83,43.83,0,0,1,7.44-.09c0-.31,0-.62,0-.93a44.55,44.55,0,0,0-7.59.09Z"/><path class="cls-9" d="M163.93,220.68a37.72,37.72,0,0,1,5.9-.15c0-.32,0-.63,0-.93a38.13,38.13,0,0,0-6,.15Z"/><path class="cls-9" d="M166.34,225.61a28.66,28.66,0,0,1,3.59-.18c0-.32,0-.63,0-.94a28.34,28.34,0,0,0-3.71.19Z"/><path class="cls-9" d="M167.12,230.8a23.39,23.39,0,0,1,3-.19l0-.93a25,25,0,0,0-3.09.19Z"/><path class="cls-9" d="M162.47,234.47a45.51,45.51,0,0,1,7.79-.06c0-.31,0-.63,0-.94a47.52,47.52,0,0,0-7.89.07Z"/><path class="cls-9" d="M162,238.63a47.43,47.43,0,0,1,8.43,0c0-.31,0-.62,0-.94a49.18,49.18,0,0,0-8.52,0Z"/><path class="cls-9" d="M158.51,244.05a61.94,61.94,0,0,1,12.2-.45c0-.31,0-.62-.05-.93a63.35,63.35,0,0,0-12.35.46Z"/><path class="cls-9" d="M155.9,250.07c2.29-.59,7.87-1.13,15.11-1.07,0-.31,0-.62,0-.93-7.33-.06-13,.49-15.3,1.09Z"/><path class="cls-2" d="M265.22,292.25a1.41,1.41,0,0,1-.84-.24c-9-6.7-17.09-12.32-23.29-16.25l-.39-.25.26-.37c.36-.5,11.22-11.58,11.3-11.65l.27-.23.28.21c.71.55,16.16,14,21.86,21.69.34.45-.12,1.07-.9,1.85C272.54,288.24,267.65,292.25,265.22,292.25ZM242,275.3c6.15,3.93,14.06,9.45,22.9,16,.08.05.37.19,1.26-.11,2.83-1,7.26-4.76,7.73-5.65-5.37-7.18-19.07-19.26-21.31-21.15C251,266,243.63,273.56,242,275.3Z"/><path d="M279.09,289.51c.75-.72-5.6-6.79-6.78-7.45,0,0-10.16,3.87-13.08,6.21,0,0-.82,12.83-1.05,15.88-.08,1.06,2.86,4.14,3.63,3.41C263.12,306.32,279.09,289.51,279.09,289.51Z"/><path class="cls-3" d="M277.54,287c-5,5.3-11.68,12.38-14.55,15.35-.06-.08-2.9-3.06-4.38-4.53-.34,2.78-.35,5.35-.42,6.38s2.86,4.14,3.63,3.42c1.31-1.25,17.28-18.06,17.28-18.06C279.51,289.11,277.54,287,277.54,287Z"/><ellipse class="cls-3" cx="271.08" cy="287.79" rx="1.7" ry="1.68"/><path class="cls-3" d="M263.26,292.16h-3a1,1,0,0,1-1-1h0a1,1,0,0,1,1-1h3a1,1,0,0,1,1,1h0A1,1,0,0,1,263.26,292.16Z"/><path class="cls-3" d="M263,295.41h-3a1,1,0,0,1-1-1h0a1,1,0,0,1,1-1h3a1,1,0,0,1,1,1h0A1,1,0,0,1,263,295.41Z"/><path class="cls-9" d="M200.61,242c15.92,20.58,48.15,46.52,48.15,46.52l15.44-14.71-1.42-1.48a76.23,76.23,0,0,1-5.89,5.91c-.11-.29-.25-.59-.4-.9a70.85,70.85,0,0,0,5.64-5.7c-.82-.85-1.85-1.94-3.05-3.21a45,45,0,0,1-5,5.47l-.62-.7a44.61,44.61,0,0,0,4.94-5.4l.3.2c-2.5-2.64-5.65-6-9-9.69a56.76,56.76,0,0,1-5.92,6.22l-.74-.59a53.43,53.43,0,0,0,6-6.33l-2.17-2.37a60.57,60.57,0,0,1-6.44,6.68l-.76-.57a57.94,57.94,0,0,0,6.55-6.82l-2.8-3.1a94.94,94.94,0,0,1-7,7.47l-.76-.56a95.49,95.49,0,0,0,7.15-7.61c-1.07-1.18-2.12-2.36-3.17-3.54-1.91,2.39-4.48,5.33-7.58,8.5l-.76-.56a112.14,112.14,0,0,0,7.71-8.65c-4.78-5.42-9.24-10.67-12.27-14.71-6-8,21.7-39.18,24.68-54,3.41-17-11.7-32.45-11.7-32.45l-18.46,10.15-.22.48-.39.86-1.72,3.86c-.12.28-.25.57-.37.86-.52,1.17-1.06,2.41-1.62,3.71l-.37.87c-.56,1.29-1.13,2.63-1.7,4-.13.29-.25.58-.37.88-.34.81-.68,1.62-1,2.45-.11.29-.23.58-.35.87-.4,1-.81,2-1.21,3l-.35.87c-.5,1.27-1,2.57-1.51,3.88-.12.29-.23.58-.34.87L208,187.26c-.1.29-.21.59-.32.88C199.94,209.45,193.76,233.15,200.61,242ZM250,269.78a32.62,32.62,0,0,0,3.12-3.59l.78.53a33.16,33.16,0,0,1-3.21,3.69ZM246,266.39a29,29,0,0,0,2.69-3.16l.78.54a29.21,29.21,0,0,1-2.75,3.21Z"/><path class="cls-9" d="M256.89,278.24a76.23,76.23,0,0,0,5.89-5.91l-.65-.69a70.85,70.85,0,0,1-5.64,5.7C256.64,277.65,256.78,278,256.89,278.24Z"/><path class="cls-9" d="M259.16,268.33l-.48-.33.4.43Z"/><path class="cls-9" d="M253.44,273.2l.62.7a45,45,0,0,0,5-5.47l-.4-.43-.3-.2A44.61,44.61,0,0,1,253.44,273.2Z"/><path class="cls-9" d="M250,269.78l.69.63a33.16,33.16,0,0,0,3.21-3.69l-.78-.53A32.62,32.62,0,0,1,250,269.78Z"/><path class="cls-9" d="M246,266.39l.72.59a29.21,29.21,0,0,0,2.75-3.21l-.78-.54A29,29,0,0,1,246,266.39Z"/><path class="cls-9" d="M243.72,264.53a55.47,55.47,0,0,0,5.91-6.22l-.65-.7a53.43,53.43,0,0,1-6,6.33Z"/><path class="cls-9" d="M240.37,261.92a60.57,60.57,0,0,0,6.44-6.68c-.21-.24-.43-.48-.65-.71a57.94,57.94,0,0,1-6.55,6.82Z"/><path class="cls-9" d="M236.34,258.9a94.94,94.94,0,0,0,7-7.47c-.21-.23-.42-.47-.64-.7a93.27,93.27,0,0,1-7.14,7.61Z"/><path class="cls-9" d="M232,255.69c3.1-3.17,5.67-6.11,7.58-8.5l-.63-.71a112.14,112.14,0,0,1-7.71,8.65Z"/><path class="cls-2" d="M197,72.68l-.18-.45a102.86,102.86,0,0,1-4.89-15.68c-1-4.92-1.8-9.37-2.36-13.61a107.84,107.84,0,0,1-1-18c.27-7.22,2.57-19.87,4.87-21.81a1.1,1.1,0,0,1,.86-.29c.93.12,1.43,1.46.84,7.61v0a7.33,7.33,0,0,1,5.29.78l.09-.15c.3-.49.66-1.12,1.06-1.82,2.33-4.07,4.38-7.47,6-7.73a1.14,1.14,0,0,1,1,.26c2,1.77-.25,6-2.9,10.9-.49.91-1,1.84-1.47,2.76,2.85-1.49,5.46-2.55,7.09-1.65a1,1,0,0,1,.48.79c.12,1.43-2.39,3.89-6.22,7.47-1.64,1.53-3.67,3.44-3.77,3.92-.11,3.57,2.8,13.42,8.88,30.09,1.14,3.12,2.21,6,3.12,8.49l.15.41-.41.15a154.37,154.37,0,0,0-16,7.36Zm-2.85-69a.46.46,0,0,0-.16.1c-1.78,1.5-4.25,13-4.57,21.19a107.24,107.24,0,0,0,1,17.9c.55,4.22,1.32,8.65,2.35,13.54a100,100,0,0,0,4.67,15.08,163.14,163.14,0,0,1,15.28-7c-.88-2.38-1.9-5.14-3-8.09-6.13-16.78-9.05-26.73-8.94-30.43,0-.68,1.13-1.78,4-4.51,2.41-2.25,6.05-5.65,6-6.77a.19.19,0,0,0-.07-.12c-1.57-.86-5.24,1.13-7.43,2.31l-1.19.65.59-1.22c.64-1.31,1.38-2.68,2.09-4,2.27-4.19,4.61-8.52,3.1-9.83a.26.26,0,0,0-.24-.07c-1.31.22-3.84,4.66-5.36,7.31l-.85,1.48.44.32a.76.76,0,0,1,.12,1,.75.75,0,0,1-1,.14,6.48,6.48,0,0,0-6.23-1.22.68.68,0,0,1-.56,0,.73.73,0,0,1-.39-.42.66.66,0,0,1,0-.55.7.7,0,0,1,.42-.39l0,0C194.8,4.4,194.26,3.72,194.14,3.64Zm.31,7Z"/><path class="cls-2" d="M201.43,12.79a.79.79,0,0,1-.44-.14l0,0a6.47,6.47,0,0,0-6.2-1.2.68.68,0,0,1-.56,0,.73.73,0,0,1-.39-.42.66.66,0,0,1,0-.55.7.7,0,0,1,.42-.39l.09,0c0-.09,0-.23.08-.4,1.2-5.91,2.33-8.76,3.65-9.24a1.28,1.28,0,0,1,1.25.25c.6.48.6,1.9.35,3.57C200.79,1.73,201.94,0,203.14,0h0a1.47,1.47,0,0,1,1.29.71c1,1.73-1.05,6.54-3.05,10.41l.48.34a.76.76,0,0,1,.12,1A.74.74,0,0,1,201.43,12.79Zm-3.3-2.43a7.93,7.93,0,0,1,2.26.84l0,0,.05-.1c2.64-5,3.88-8.84,3.25-9.91a.57.57,0,0,0-.56-.28h0c-1.41,0-3.49,5.48-4.49,8.13-.18.47-.34.9-.49,1.27A.32.32,0,0,1,198.13,10.36Zm.35-9.19-.12,0c-.66.24-1.73,1.93-3.09,8.6-.06.29-.11.5-.14.62a6.61,6.61,0,0,1,2.22-.16l-.1,0,.08-.24c1.37-4.34,2-8.23,1.45-8.69A.49.49,0,0,0,198.48,1.17Z"/><path class="cls-2" d="M201.67,12.24a.3.3,0,0,1-.24.12.34.34,0,0,1-.19-.07A6.92,6.92,0,0,0,194.61,11a.3.3,0,1,1-.21-.57l.28-.09h0a6.92,6.92,0,0,1,3-.25h0a7.73,7.73,0,0,1,3.09,1.16h0a7.32,7.32,0,0,1,.76.52A.32.32,0,0,1,201.67,12.24Z"/><path class="cls-10" d="M225.13,85.38c0,.3-.07.59-.12.89a18.48,18.48,0,0,1-3.44,8,23.08,23.08,0,0,1-1.59,2c-3.31,3.76-6.37,4.21-9.16,2.73a17,17,0,0,1-5.55-5.63c-.77-1.12-1.5-2.32-2.2-3.59-3.17-5.71-5.78-12.49-7.78-16.36a2.64,2.64,0,0,1,1.52-1.91A158.23,158.23,0,0,1,213.12,64h.37c1.53-.55,2.36-.14,2.51.08a83.84,83.84,0,0,1,5.66,7.9,30.51,30.51,0,0,1,1.88,3.7s0,0,0,0a22.92,22.92,0,0,1,1.1,3.34,18,18,0,0,1,.55,3.47A16.27,16.27,0,0,1,225.13,85.38Z"/><path class="cls-11" d="M216.72,91.18c2.62-2.58,12.13-7.47,18.33-7.54,14.92,5.69,27.16,75.14,24,92.76-3.64,20.27-50.18-18.21-52.73-18.84C206.31,157.56,200.61,102.39,216.72,91.18Z"/><path class="cls-2" d="M178.75,121.66a15.64,15.64,0,0,1-7.38-1.53c-6.6-3.52-8.12-21-9.24-33.78-.42-4.82-.78-9-1.33-10.85-2.5-8.44-.15-20.41,2-23.18a1.56,1.56,0,0,1,1.27-.79c.85,0,1.26,1.06,1.46,2.7.5-2.85,1.24-5.32,2.46-5.91a1.45,1.45,0,0,1,1.44.13c.3.19,1,.65.79,4.29,1-3.09,2.08-5.33,3.49-5.45a1.71,1.71,0,0,1,1.6.66c.7.93.64,2.77.27,4.74,1.1-2.35,2.13-4,3.17-4.28a1.26,1.26,0,0,1,1.1.17c2.47,1.71.36,7-1.89,12.54-.46,1.16-.94,2.34-1.38,3.5,1.92-1.18,5.28-2.9,7.51-2a2.42,2.42,0,0,1,1.12.79,3.58,3.58,0,0,1,.24.33c.89,1.39-2,4.09-5.37,7-.56.49-1,.87-1.22,1.08a30.26,30.26,0,0,0-3.62,4.56c.79,6.28,2.54,17.74,5.63,25.81a127.63,127.63,0,0,0,23.34-8.78,70.54,70.54,0,0,1,14.08-5.4l.26-.06.17.2c1.62,1.84,7,13.06,6.29,16.83a1.68,1.68,0,0,1-.88,1.31C203.21,116.55,188.23,121.66,178.75,121.66ZM164,52.4c-.06,0-.25,0-.56.44-2.06,2.69-4.17,14.51-1.83,22.42.57,1.95.92,5.95,1.37,11,1,11.86,2.59,29.78,8.78,33.08,7.59,4,25.07-.63,51.94-13.91a1,1,0,0,0,.42-.71c.64-3.27-4.27-13.67-5.94-15.89a70.57,70.57,0,0,0-13.65,5.28,129.75,129.75,0,0,1-23.85,8.93l-.38.1-.14-.36c-3.25-8.24-5.06-20.17-5.85-26.55l0-.16.09-.14a32.56,32.56,0,0,1,3.82-4.81c.23-.23.69-.63,1.26-1.12,3.83-3.31,5.58-5.28,5.21-5.86l-.18-.24a1.53,1.53,0,0,0-.75-.52c-1.59-.61-4.58.41-7.82,2.66l-1.11.77.45-1.27c.55-1.55,1.21-3.19,1.85-4.76,2-5,4.1-10.19,2.2-11.5a.39.39,0,0,0-.36-.06c-1.3.38-3.13,4.83-4.34,7.78-.46,1.12-.9,2.18-1.26,2.93l-.8-.35c1.72-4.36,3.08-9.71,2-11.13a.84.84,0,0,0-.84-.32c-1.63.14-3.27,6.53-4.06,9.6-.16.64-.31,1.22-.44,1.7l-.24.89-.53-.76c-.11-.15-.1-.22,0-.63,1.63-8.76.6-9.69.48-9.76-.3-.19-.48-.15-.6-.08-.72.34-1.74,2.22-2.54,9.23-.1.93-.1.93-.26,1.06l-.69.53,0-1.42c-.06-5.3-.53-6.11-.81-6.11Z"/><path class="cls-12" d="M236.81,55.27s5.29,2.67,6.54,5.55,4.42,6.1-.49,11.29c-.68.71-8.43,6.38-10.56,15.7-1.46.28-10-3-9.48-4.6a27,27,0,0,1,3-6.17c-6.44-2.73-4.18-8.49-1.23-11.79C234.28,54.37,236.81,55.27,236.81,55.27Z"/><path class="cls-13" d="M226.39,66.59c-1.53-.78-3-2.4-2.25-3.35.35-.44,2.08.46,3.54-.3Z"/><path class="cls-14" d="M226.39,66.89a.35.35,0,0,1-.14,0,4.92,4.92,0,0,1-2.59-2.71,1.25,1.25,0,0,1,.24-1.1c.26-.32.73-.26,1.32-.18a3.83,3.83,0,0,0,2.32-.2.3.3,0,1,1,.28.54,4.42,4.42,0,0,1-2.68.27,2.46,2.46,0,0,0-.78,0,.67.67,0,0,0-.1.58,4.33,4.33,0,0,0,2.27,2.29.31.31,0,0,1,.13.42A.3.3,0,0,1,226.39,66.89Z"/><path class="cls-2" d="M232.17,64.25a.67.67,0,0,1-.93.18.66.66,0,0,1-.19-.92.67.67,0,1,1,1.12.74Z"/><path class="cls-14" d="M232.32,61c.57-.27,1.62.69,1.9,1s.37.6.17.84-.56.14-.83,0c-.44-.21-1.87-1.07-1.44-1.71A.41.41,0,0,1,232.32,61Z"/><path class="cls-2" d="M229.26,61.68a.63.63,0,0,1-.86.17.61.61,0,0,1-.18-.85.64.64,0,0,1,.87-.17A.61.61,0,0,1,229.26,61.68Z"/><path class="cls-14" d="M229.4,58.71c.52-.24,1.49.65,1.76,1s.34.55.15.77-.52.14-.76,0c-.41-.2-1.73-1-1.34-1.58A.51.51,0,0,1,229.4,58.71Z"/><path class="cls-14" d="M248.47,62.71a26.55,26.55,0,0,1,1.08,3.73c.54,2.54.66,5.34-.64,7.6s-3.75,3.55-6.2,4.4-5,1.37-7.23,2.56a.12.12,0,0,1-.15,0,8.57,8.57,0,0,1-1.08-5.1.11.11,0,0,1,.16-.09,4.29,4.29,0,0,0,4.33-.75c1.37-1.22,2.18-4.52.44-5.77a5.27,5.27,0,0,0-5,.06.12.12,0,0,1-.17-.14A10.21,10.21,0,0,1,240.68,63a.12.12,0,0,0,0-.21l-4.81-3.25a14,14,0,0,1-3.53-3,4.71,4.71,0,0,1-.91-4.35c.7-1.95,3.09-2.91,5.16-2.59A10.33,10.33,0,0,1,242,52.7,27.17,27.17,0,0,1,248.47,62.71Z"/><path class="cls-2" d="M229.07,69.58a2.11,2.11,0,0,1-.44.74c-.76.7-4.21-.92-5.24-2.12l0,.2a4.33,4.33,0,0,0,.51,2.64,2.81,2.81,0,0,0,2.22,1.41,2.94,2.94,0,0,0,1.95-.74C228.44,71.37,229.75,70.1,229.07,69.58Z"/><path class="cls-1" d="M228.63,70.32a2.11,2.11,0,0,0,.44-.74l0,0a1.48,1.48,0,0,0-.51-.18,11.66,11.66,0,0,1-3.71-1.6,1.84,1.84,0,0,0-.57-.3.65.65,0,0,0-.39,0,.87.87,0,0,0-.48.73C224.42,69.4,227.87,71,228.63,70.32Z"/><path class="cls-11" d="M239.52,90.23c-3.27-18.59-39.22,1-44.27,3.18,0,0,4.4,25.61,5.11,25.41C210.58,116,241.1,99.23,239.52,90.23Z"/><path class="cls-2" d="M200.61,119.22a.3.3,0,0,1-.29-.23.29.29,0,0,1,.21-.37c10.28-2.9,34.31-18.42,36.21-22a.31.31,0,1,1,.54.29c-1.12,2.09-8.45,7.27-15.22,11.48-8.78,5.45-16.77,9.48-21.37,10.78Z"/></g></g></svg>