<svg xmlns="http://www.w3.org/2000/svg" viewBox="0 0 270.67 270.49"><defs><style>.cls-1{fill:#fff;}.cls-2{fill:#1d1d1b;}.cls-3{fill:#fbc373;}.cls-4{fill:#fdab92;}.cls-5{fill:#87a4a7;}.cls-6{fill:#f0a890;}.cls-7{fill:none;stroke:#000;stroke-miterlimit:10;}.cls-8{fill:#0a394a;}.cls-9{fill:#cac8e5;}</style></defs><g id="Layer_2" data-name="Layer 2"><g id="graphics"><circle class="cls-1" cx="135.42" cy="135.25" r="135.25"/><path class="cls-2" d="M125,10.12a34.51,34.51,0,0,1,18.34,1.49c4.69,1.62,7.32,5.22,10,9.16,1.49,2.19,1.88,5.54,2.06,8.16a26.7,26.7,0,0,1-.05,4.47c0,.43-.84,3.92-.69,4-.76-.62-1.68-1.29-2.63-1s-1.47,1.29-1.75,2.24-.21,2.24-.76,3.07c-1.18-.34-1.62-2.83-2-3.88l-2-5.09a6.26,6.26,0,0,0-1-1.85c-1.23-1.49-3.43-1.6-5.36-1.63s-4.14-.22-5.28-1.78a8.12,8.12,0,0,1-9.61.57,4.64,4.64,0,0,1-4.24,1.37,13.71,13.71,0,0,1-4.31-1.68,16.78,16.78,0,0,1-2.65,1.32,6.15,6.15,0,0,0-1.86,1.87,9.17,9.17,0,0,0-1.5,5.28,13.54,13.54,0,0,1-.62-16.2,18.41,18.41,0,0,1,6.35-6.33A31,31,0,0,1,125,10.12Z"/><path class="cls-3" d="M160.78,186.25q-1.4,4.91-2.78,9.88c-.47,1.7-.83,3.43-1.43,5.1-1,2.73-1.91,5.48-2.87,8.26-.58,1.7-1.15,3.4-1.73,5.11h0l-.45,1.39h0c-5.71,17.27-11,35.3-15.93,53.52-.46,0-.92,0-1.38,0h-3c-.63,0-1.25,0-1.87,0v-.06A133.65,133.65,0,0,1,58.8,245.92c-2.33-1.6-4.62-3.29-6.84-5Q49.53,239,47.2,237c5.41-13.2,10.54-26,16.3-39.75h0c2-4.9,4.17-9.9,6.43-15.1a58.66,58.66,0,0,0,2.45-7.58h0c.14-.52.3-1,.44-1.52s.3-.95.42-1.41h0c1.23-3.72,2.82-6.61,6.26-7.17h0a1.67,1.67,0,0,1,.39-.06h0a13.73,13.73,0,0,1,2.59.11c4.89.79,9.73,1.88,14.61,2.82,10.26,2.42,20.39,5.33,30.5,8.45,2.78.86,5.57,1.72,8.34,2.62,3.73,1.18,7.44,2.38,11.16,3.57.45.15.88.29,1.32.42Q154.61,184.33,160.78,186.25Z"/><path class="cls-3" d="M226.68,233.4c-1.83,1.72-3.72,3.38-5.64,5s-3.83,3.1-5.8,4.57a133.49,133.49,0,0,1-64.36,25.65c-5,.55-10.13.87-15.29.92-.46,0-.92,0-1.38,0h-3c-.63,0-1.25,0-1.87,0v-.06q.66-26.62,2.1-53.24h0c0-.46,0-.92.07-1.38h0c0-.34,0-.69.06-1,.07-1.46.14-2.93.22-4.46v0c.49-9.8,1.11-21,4.16-30.93a40.68,40.68,0,0,1,7.82-14.83c6.66-7.67,15.7-5.71,24.95-5.31s25.68-1.27,36,3.1a11.15,11.15,0,0,1,1.31.6h0a.7.7,0,0,1,.17.09h0a14.19,14.19,0,0,1,6.33,5.89A105.3,105.3,0,0,1,223,198.94h0c.46,2.38.84,4.77,1.18,7.17v0C225.4,215.09,226,224.17,226.68,233.4Z"/><path class="cls-4" d="M149.93,37.05l.09-.12a3.56,3.56,0,0,1,2.26-.93,3.48,3.48,0,0,1,2.27,1.39,3.25,3.25,0,0,1,.52,1.24c.72,3.29-1.47,8.1-5.4,7.27a25.71,25.71,0,0,1-.19-6.44A6.52,6.52,0,0,1,149.93,37.05Z"/><path class="cls-4" d="M157.92,73.54c-2.5,6-16.39,27.42-22.49,29.76s-8.69-4.4-13.58-11.56c-2.37-3.48-8.25-16.15-9.29-18.53,3.11-2.16,12-2.47,14.37-5.24a4.35,4.35,0,0,0,.78-1.66c.19-.65.34-1.41.5-2.21a51.64,51.64,0,0,0,.66-9.36c0-.89,0-1.68-.11-2.32a3.56,3.56,0,0,0-.39-1.74l13.16-.75C142,57.33,139,70.3,157.3,70.12c.32,0,.41.85.64,1.08C158.49,71.81,158.24,72.78,157.92,73.54Z"/><path class="cls-5" d="M221.31,200.08c-8.41,4.86-20.43,5.59-29.9,6.71A371.15,371.15,0,0,1,125.94,209,311.21,311.21,0,0,1,93,205.33c-6.28-1.06-12.69-2-18.82-3.74a49.41,49.41,0,0,1-11-4.52c-1.83-1-3.7-2.31-4.46-4.28a8.94,8.94,0,0,1-.36-4,29.28,29.28,0,0,1,.53-3.19c.18-.82.39-1.72.62-2.71,1.05-4.37,2.73-10.32,4.65-16.77.27-.88.55-1.76.81-2.66,2.19-7.22,4.62-14.86,6.82-21.49.31-.92.6-1.82.89-2.69,1.66-4.92,3.13-9.1,4.2-11.88.92-2.42,1.87-4.93,2.85-7.49.33-.87.66-1.73,1-2.62a197.94,197.94,0,0,1,8.38-19.16c.43-.88.88-1.73,1.36-2.59a73.51,73.51,0,0,1,10.24-14.79,36,36,0,0,1,3.69-3.51,28.91,28.91,0,0,1,3.35-2.47,32.75,32.75,0,0,1,6.51-3.26,25.63,25.63,0,0,1,7.45-1.56,17.23,17.23,0,0,0-1.67,3.87,8.25,8.25,0,0,0-.47,4.5,7.61,7.61,0,0,0,4.89,5.18c5.37,2,11.72.37,16.09-3A27.69,27.69,0,0,0,146,74.67c.45-.63,3.86-6.69,4-6.66,4.7.86,9.28,1.89,13.95,3,5.17,1.23,11.89,2.61,17.66,5.83,11.66,6.51,13.15,23.81,19,35.74.41.85.83,1.7,1.22,2.55,2.14,4.61,4.09,9.3,5.92,14,.54,1.4,1.08,2.8,1.61,4.21.32.87.64,1.74.94,2.61,2.48,6.85,4.69,13.78,6.7,20.78.27.88.51,1.77.76,2.67q.69,2.44,1.33,4.91,1.94,7.27,3.59,14.64c.21.91.42,1.82.61,2.73.07.33.15.66.22,1C225.06,189.47,228.85,195.72,221.31,200.08Z"/><path class="cls-4" d="M109.77,36.2c-.4,13.26,5.31,24.62,20,24.62,15.05,0,21.08-10.12,21.48-23.37s-8.58-24.28-20.05-24.62S110.16,23,109.77,36.2Z"/><path class="cls-2" d="M144.62,54.72a59.38,59.38,0,0,1-5.24,2.83,10.69,10.69,0,0,1-5.87.64,32.57,32.57,0,0,1-6.34-2.12,4.88,4.88,0,0,0-1.45-.35c-1.07,0-2,.62-3,.94-3.39,1.06-7.26-2-9.35-4.43,2.85,5.57,8.64,9.1,16.66,9.1s13.47-3,16.73-8.07A18.64,18.64,0,0,1,144.62,54.72Z"/><path class="cls-2" d="M122.79,8.74a3.09,3.09,0,0,1,2.45-2.41,7.61,7.61,0,0,1,3.6.29A32.38,32.38,0,0,1,134,8.69c1.9.89,3.77.88,5.85,1.05,2.38.2,5.12.6,6.37,2.63.19.31.38.68.73.75a1.63,1.63,0,0,0,.44,0c3.41-.48,6.29,4.06,7.14,6.8a30.67,30.67,0,0,1,1.35,10.33,28.9,28.9,0,0,1-.68,5.33c-.61,2.72-1.33.38-3.18.84-1,.24-1.47,1.29-1.75,2.24s-.21,2.24-.76,3.07c-1.18-.34-1.62-2.83-2-3.88l-2-5.09a6.26,6.26,0,0,0-1-1.85c-1.23-1.49-3.43-1.6-5.36-1.63s-4.14-.22-5.28-1.78a8.12,8.12,0,0,1-9.61.57,4.64,4.64,0,0,1-4.24,1.37c-1.09-.16-2-.79-3-1-1.26-.28-1.24.29-2.44.71a7.69,7.69,0,0,1-7.83-1.94c-2.19-2.13-2.29-5.22-1.73-8.07a8,8,0,0,1,.88-2.58A7.1,7.1,0,0,1,109,14a7.78,7.78,0,0,1,5.31-.78c-.54-.14.12-2.69.25-3C116,6.59,120,7.1,122.79,8.74Z"/><path class="cls-2" d="M123.94,45.88a1.72,1.72,0,0,1-1.82-1.08,1.25,1.25,0,0,1,.06-1,1.47,1.47,0,0,1,.89-.69,2.15,2.15,0,0,1,1.49.13.23.23,0,0,1,.12.3.23.23,0,0,1-.31.12,1.71,1.71,0,0,0-1.17-.1,1,1,0,0,0-.61.46.78.78,0,0,0,0,.62c.24.76,1.2.79,1.59.76h0a.23.23,0,0,1,0,.46Z"/><path class="cls-2" d="M131.9,42.5c0,1.21.63,2.18,1.41,2.18s1.41-1,1.41-2.18-.63-2.17-1.41-2.17S131.9,41.3,131.9,42.5Z"/><path class="cls-2" d="M133.31,41.38a.52.52,0,0,0,.46.57.53.53,0,0,0,.46-.57.52.52,0,0,0-.46-.56A.51.51,0,0,0,133.31,41.38Z"/><path class="cls-2" d="M114.76,42.5c0,1.21.63,2.18,1.41,2.18s1.41-1,1.41-2.18-.63-2.17-1.41-2.17S114.76,41.3,114.76,42.5Z"/><ellipse class="cls-2" cx="116.63" cy="41.38" rx="0.46" ry="0.56"/><path class="cls-2" d="M117.15,37.61a8.53,8.53,0,0,0-2.57,0,7.52,7.52,0,0,0-2.48.75h0a.17.17,0,0,1-.24-.07.18.18,0,0,1,.06-.24,8,8,0,0,1,2.57-1,9.12,9.12,0,0,1,2.77-.22.37.37,0,0,1,.33.4.36.36,0,0,1-.4.34h0Z"/><path class="cls-2" d="M132.26,36.82a9.39,9.39,0,0,1,2.77.3,8.31,8.31,0,0,1,2.54,1.06.18.18,0,0,1-.19.31h0a7.44,7.44,0,0,0-2.46-.82,8.57,8.57,0,0,0-2.57-.11h0a.36.36,0,0,1-.41-.31.37.37,0,0,1,.32-.42Z"/><path class="cls-2" d="M122.06,53.13a.23.23,0,0,1-.15-.41,9.94,9.94,0,0,1,5.21-2.19.22.22,0,0,1,.26.2.24.24,0,0,1-.21.26,9.47,9.47,0,0,0-5,2.09A.24.24,0,0,1,122.06,53.13Z"/><path class="cls-6" d="M150.21,43a.32.32,0,0,1-.14,0,.28.28,0,0,1-.1-.38,7.47,7.47,0,0,1,3.34-3.07.27.27,0,1,1,.23.49,7,7,0,0,0-3.1,2.85A.27.27,0,0,1,150.21,43Z"/><path class="cls-6" d="M153.38,42.33a.27.27,0,0,1-.17-.06,3.58,3.58,0,0,0-1.74-.75.28.28,0,1,1,.09-.55,4.35,4.35,0,0,1,2,.87.28.28,0,0,1-.17.49Z"/><path d="M138.12,216.25a370.89,370.89,0,0,1-71.5-6.95.69.69,0,0,1-.55-.81.7.7,0,0,1,.81-.54,370,370,0,0,0,97.62,6,.72.72,0,0,1,.74.64.69.69,0,0,1-.64.74Q151.37,216.25,138.12,216.25Z"/><path class="cls-7" d="M219.79,210a16.44,16.44,0,0,0,1.09-11.25c-1.15-3.74-4-6.67-6.77-9.42-3.06-3-7.35-7.39-11.93-7.25-6.16.18-12.38,4.24-17.51,7.26l-12.55,7.4c-2.78,1.64-5.91,3.85-5.92,7.08,0,1.74.49,3.11,2,3.88,2.5,1.24,5.89,0,8.43-1.1s4.07-1.32,6.06-2.26c-3.09,2.65-7.06,8.12-9.8,12.1-1.31,1.89-2.12,4.42-.74,6.25s4.77,1.5,6.63.52a6.06,6.06,0,0,0,.24,6.75c1.47,1.79,4,1.89,6.37.7a6.71,6.71,0,0,0-.76,3.51,4.78,4.78,0,0,0,2,3c3.58,2.37,7.56-.32,10.53-2.38a85,85,0,0,0,13-11.82C214,219.07,217.61,215.05,219.79,210Z"/><path d="M186.39,230.33a.61.61,0,0,1-.46-1l8.06-9a.62.62,0,0,1,.91.83l-8.05,8.95A.66.66,0,0,1,186.39,230.33Z"/><path d="M179.21,223.13a.6.6,0,0,1-.49-.24.61.61,0,0,1,.11-.86,101.58,101.58,0,0,0,8.59-7.64.62.62,0,0,1,.87.87,104.51,104.51,0,0,1-8.71,7.75A.63.63,0,0,1,179.21,223.13Z"/><path class="cls-5" d="M164,79.49c7.32-9.86,21.49-2.29,27.56,1,21.61,11.72,41.27,26,61.2,40.21,5.16,3.7,15.24,12.56,15.9,19.48s-3.43,14.81-7,20.53a486.58,486.58,0,0,1-29.56,41.42c-6.48,8.27-12.66,2.18-19.51-2.46a246.58,246.58,0,0,1-20.09-15.14,4.09,4.09,0,0,1-1.81-2.64A4.15,4.15,0,0,1,192,179.2c8.49-10,19.27-22.9,26.65-33.78.39-.61-42.08-26.93-50.78-37.95C160,97.56,156.2,90,164,79.49Z"/><path d="M213.84,201.37a.66.66,0,0,1-.42-.14c-7.14-5.42-14.37-11-21.49-16.49a4.16,4.16,0,0,1-2-2.91,4.2,4.2,0,0,1,1-2.52,229.88,229.88,0,0,1,22.23-27.37.69.69,0,0,1,1,0,.7.7,0,0,1,0,1,229.8,229.8,0,0,0-22.09,27.2,3,3,0,0,0-.73,1.67c0,.72.77,1.35,1.46,1.89,7.11,5.52,14.34,11.06,21.48,16.48a.7.7,0,0,1,.13,1A.67.67,0,0,1,213.84,201.37Z"/><path d="M206.69,137.71a.68.68,0,0,1-.36-.1A309,309,0,0,1,175.72,116c-7.85-6.32-15.33-13.47-16.88-23a.69.69,0,0,1,.57-.79.7.7,0,0,1,.8.57c1.47,9.08,8.74,16,16.38,22.16a307.36,307.36,0,0,0,30.47,21.56.69.69,0,0,1-.37,1.28Z"/><path class="cls-8" d="M69.92,148.76l-.19,0a.68.68,0,0,1-.47-.85c3.61-12.8,9-26.4,13.27-36.82a138.58,138.58,0,0,1,17.9-31.5.69.69,0,0,1,1.11.83,136.72,136.72,0,0,0-17.72,31.2c-4.27,10.38-9.63,23.93-13.23,36.67A.71.71,0,0,1,69.92,148.76Z"/><path class="cls-5" d="M81.78,130.32c1.45-4.49,2.86-9,4.26-13.47a120.24,120.24,0,0,1,6-15,146.54,146.54,0,0,1,7.64-14.18c1.71-2.79,7-12.91,10-14.11C91,81,73.88,90.92,58.41,105.94c-9.21,9-36.2,43-38,49.41-1.68,6,8,31.37,15.8,35.46S60.64,184,62.61,179.92C70.4,163.94,76.35,147.16,81.78,130.32Z"/><path class="cls-5" d="M119.9,73.16s3.47,1.65,2.14,6.67c0,0,5,0,6.15,1.9s2.26,4.2.91,6.75-12.6-9.24-12.6-9.24S117.14,72,119.9,73.16Z"/><path class="cls-7" d="M89.9,96.19a14.09,14.09,0,0,0,1.84,9.51c1.85,2.79,4.9,4.5,7.85,6.09,3.24,1.74,7.83,4.29,11.56,3.06s6.58-3.89,9.2-6.57c1.64-1.68,3.08-3.56,4.75-5.21a9.23,9.23,0,0,1,2.38-2.12c.78-.34,1.7-.26,2.52-.62a6.29,6.29,0,0,0,3.77-5.69,6.7,6.7,0,0,0-4.57-6.29,6.66,6.66,0,0,0-.12-5.86c-1.46-2.4-4.42-2.25-6.83-2.81a6.27,6.27,0,0,0-4.42-8.08,7.36,7.36,0,0,0-3.3-.16c-.8.14-2.38.52-2.89,1.24A93.63,93.63,0,0,0,117.32,64c1.41-2.54,3.23-5.42,1-8.06a4.73,4.73,0,0,0-3.79-1.62,6.29,6.29,0,0,0-3.93,1.9,18,18,0,0,0-2.64,3.59q-5.58,9-10.7,18.35c-.9,1.64-1.83,3.32-2.72,5C92.36,87.32,90.48,91.64,89.9,96.19Z"/><path d="M120.1,94.33a.58.58,0,0,1-.4-.16.59.59,0,0,1,0-.83A19.49,19.49,0,0,1,128,88.08a.58.58,0,0,1,.73.38.57.57,0,0,1-.38.73,18.38,18.38,0,0,0-7.8,5A.59.59,0,0,1,120.1,94.33Z"/><path d="M112.72,87.73a.57.57,0,0,1-.34-.11.58.58,0,0,1-.13-.81,19.25,19.25,0,0,1,8.12-6.52.59.59,0,1,1,.46,1.08,18.06,18.06,0,0,0-7.63,6.12A.57.57,0,0,1,112.72,87.73Z"/><path class="cls-5" d="M87.93,92.67a4.2,4.2,0,0,0-2.37-1A4.15,4.15,0,0,0,83.05,93c-16.88,15.31-32.14,32.35-49,47.7C30,144.42,25.49,147.37,22.38,152c-7.71,11.41-8.13,29.33,4.5,37.5a22.71,22.71,0,0,0,15.24,3.29c6.12-.84,11.66-4,16.83-7.38,10.51-6.87,18.13-17.31,25.64-27.15,8.12-10.62,16.4-21.69,25.43-31.67,2.56-2.82,5.31-5.74,6.16-9.45a4.07,4.07,0,0,0,0-2.27,5,5,0,0,0-1.57-1.92C106.2,105.58,97.09,99.12,87.93,92.67Z"/><path class="cls-7" d="M116.17,114.84a5,5,0,0,0-1.57-1.92c-8.4-7.34-17.51-13.8-26.67-20.25a4.2,4.2,0,0,0-2.37-1A4.15,4.15,0,0,0,83.05,93c-16.88,15.31-32.14,32.35-49,47.7"/><path class="cls-7" d="M84.59,158.23c8.12-10.62,16.4-21.69,25.43-31.67"/><path class="cls-7" d="M269.39,135.11a134.07,134.07,0,0,1-42.71,98.29c-1.83,1.72-3.72,3.38-5.64,5s-3.83,3.1-5.8,4.57a134,134,0,0,1-78.64,26.57c-.49,0-1,0-1.49,0h-2l-1.85,0-1,0-.89,0A133.65,133.65,0,0,1,58.8,245.92c-2.33-1.6-4.62-3.29-6.84-5Q49.53,239,47.2,237A134.45,134.45,0,1,1,269.39,135.11Z"/><path class="cls-9" d="M52.9,88.06s.87-14.24,0-20.06,3.72-23.84,12.3-30.48S82.67,12.93,67.63,4.2s-32,11.64-33.39,41.93S39.74,104,39.74,104s.44-6.26.87-11.43,3.88-9.93,3.88-14.46-2.16-13,.32-12.51,4.53,5.61,4.75,8S50.85,86.65,52.9,88.06Z"/><path class="cls-1" d="M61.9,16.25s-5.65-1.87-7-3.21C54.88,13,55,23.83,61.9,16.25Z"/><path class="cls-1" d="M72.33,19.72s-5.75-1.55-7.19-2.81C65.14,16.91,65.81,27.68,72.33,19.72Z"/><path class="cls-1" d="M66.82,27.82a63.83,63.83,0,0,1-14.6-5.06A8.45,8.45,0,0,0,57.73,29C62.58,30.81,65.4,31.21,66.82,27.82Z"/><path class="cls-9" d="M223.44,90.93s-.87-14.24,0-20.06S219.72,47,211.14,40.4s-17.47-24.6-2.43-33.33S240.7,18.72,242.1,49s-5.5,57.89-5.5,57.89-.43-6.25-.87-11.43-3.88-9.92-3.88-14.45S234,68,231.53,68.49s-4.53,5.61-4.75,8S225.49,89.53,223.44,90.93Z"/><path class="cls-1" d="M214.38,18.45s5.82-1.3,7.31-2.5C221.69,16,220.56,26.68,214.38,18.45Z"/><path class="cls-1" d="M204.18,22s5.84-1.17,7.37-2.33C211.55,19.63,210.17,30.34,204.18,22Z"/><path class="cls-1" d="M209,28.91s9.17,8,14.6-5.05c0,0,.24,7.56-4.61,9.34A7.56,7.56,0,0,1,209,28.91Z"/></g></g></svg>