<svg xmlns="http://www.w3.org/2000/svg" viewBox="0 0 261.83 261.93"><defs><style>.cls-1{fill:#fff;}.cls-2{fill:#4d1c1b;}.cls-3{fill:#fbc373;}.cls-4{fill:#fff4e3;}.cls-5{fill:#e01029;}.cls-6{fill:none;}</style></defs><g id="Layer_2" data-name="Layer 2"><g id="graphics"><path class="cls-1" d="M236.05,201.38s-1.56,21.87,6,30.21,16.62,18.8,11.05,20.86S239,247.33,239,247.33s-4.29.92-15-4.81-21.09-7.29-22.14-7.81,3.13-17.19,3.13-17.19l33.33-26Z"/><circle class="cls-1" cx="130.94" cy="130.89" r="130.89"/><path class="cls-2" d="M171.32,37.41c-4.87,11.77-24.45,28.86-24.45,28.86l-.43.53-10,12.26-.68.82L58.78,174a77.1,77.1,0,0,1-30.09-9.16h0c-8.42-4.77-16.55-12-21.2-23a81,81,0,0,1-6-23.07c-.18-1.58-.3-3.15-.37-4.75v0A131.1,131.1,0,0,1,97.64,4.63l.07,0A121.22,121.22,0,0,1,114.07,2C134,.14,148.48.21,158.94,4.35h0a31.64,31.64,0,0,1,5.85,3C175.47,14.44,176.17,25.65,171.32,37.41Z"/><path class="cls-3" d="M231.07,114.73l-.2.12c-.83.51-4.2,2.59-8.48,5.45-6.58,4.44-15.31,10.75-20.1,16.08-8.39,9.33-4.24,31-4.32,41.79s-7.76,44.31-53.08,73c0,0-15.43,10.67-42.19,6.59-1.21-.18-2.4-.4-3.57-.64l-.08,0H99a72.27,72.27,0,0,1-14.13-4.45h0C68,245.37,56.68,233.13,52.4,225.46c-4.12-7.41-18.8-31.56-23.71-60.6h0a102.3,102.3,0,0,1-.44-33.49c6.9-42.45,55.13-73.23,64.4-75.29,0,0,22.2-6.34,37.51-2.1h0a20.8,20.8,0,0,1,9.75,5.45c1,1.08,1.93,2.07,2.75,3,1.5,1.68,2.73,3.13,3.77,4.38,5.49,6.52,6.14,7.36,17.35,6.76a79.07,79.07,0,0,0,9.46-1.32c14-2.52,32.07-6.16,47.29,11.65a53.26,53.26,0,0,1,3.06,4.94v0c.17.29.33.58.49.89a2.29,2.29,0,0,1,.16.31h0c2.91,5.51,6.5,14.17,6.8,23.75,0,.13,0,.26,0,.4A4.52,4.52,0,0,1,231.07,114.73Z"/><path d="M249,75.27a7.49,7.49,0,0,1-.62.79l-.07.08c-.47.53-1.57,1.86-3.16,3.85,0,0,0,0,0,0-.2.26-.41.52-.61.79-2.69,3.38-5.72,7.29-5.76,7.34l-.71-.55s3.58-4.61,6.38-8.14c1.63-2,2.71-3.37,3.21-3.91.11-.12.21-.25.31-.37a6.92,6.92,0,0,0,.59-.83c.84-1.31,1.37-2.78,1.14-3.42a.38.38,0,0,0-.36-.28,3.69,3.69,0,0,0-2.35.54h0a5.6,5.6,0,0,0-.7.45s0,.05-.06.08c-14.39,17-14.64,16.94-15.05,16.73l-.31-.14.06-.37a92.55,92.55,0,0,0-1-9.89c-.15-1.12-.49-1.82-1-2s-1.43.21-1.86.52c-.7.48-1.18,4.58-1.47,7s-.46,3.85-.77,4.35a10.9,10.9,0,0,0-.53,2.16h0c-.51,2.77-1.18,7.56-1.6,10.85v.14l-.1.11c-3.72,3.88-16.87,8.92-17.42,9.13-10.42,3.4-18.45,4.89-25.11,4.89-12.57,0-20.3-5.29-30.22-13-7.51-5.81-11.71-14.64-14-22.35a70.68,70.68,0,0,1-2.91-15.79l.9,0a69.77,69.77,0,0,0,2.69,15,52.15,52.15,0,0,0,6.8,14.83c.18.25.35.5.54.75a32.69,32.69,0,0,0,6.58,6.88c15.37,11.87,24.77,17.62,54.48,7.92.11,0,13.24-5.08,17-8.79.22-1.7.95-7.33,1.58-10.7.08-.4.16-.78.24-1.1v0a1.55,1.55,0,0,1,.05-.23,4.18,4.18,0,0,1,.38-1.18,22.06,22.06,0,0,0,.63-4c.5-4.19.89-7,1.84-7.66a2.83,2.83,0,0,1,2.74-.6c.81.36,1.32,1.27,1.52,2.74.3,2.23.91,6.91,1,9.1,2.19-2.31,9.13-10.42,13.86-16a.49.49,0,0,1,.14-.11,5.28,5.28,0,0,1,3.66-1.14,1.28,1.28,0,0,1,1.08.86C251,71.78,250,73.82,249,75.27Z"/><path d="M248.42,84.12a4.29,4.29,0,0,1-.15.42c-.07.16-.15.32-.23.47a21.17,21.17,0,0,1-4.9,6.13l-.57-.7a20.05,20.05,0,0,0,4.87-6.26,2,2,0,0,0,0-1.9c-.57-1-2.18-1.39-2.95-1.48l-.18,0,.09-.9a4.89,4.89,0,0,1,.71.12,4.8,4.8,0,0,1,3.11,1.83A2.72,2.72,0,0,1,248.42,84.12Z"/><path d="M250,88.45a4.56,4.56,0,0,1-.17.88,5.16,5.16,0,0,1-.44,1c-1.69,2.88-2.62,4.21-2.67,4.26l-.73-.51s1-1.36,2.62-4.21c1.22-2.07,0-4.1-.6-4.87a2.45,2.45,0,0,0-.25-.3l.63-.59,0,0A6.41,6.41,0,0,1,250,88.45Z"/><path d="M250.58,97c-2.07,3.79-7.75,9.34-15.2,14.87-1.19.88-2.39,1.74-3.63,2.59-.28.2-.58.4-.87.59-2.73,1.86-5.58,3.63-8.49,5.3A132.71,132.71,0,0,1,206.85,128c-12.08,5-29.15,8.54-47.27,8.54-14,0-28.68-2.11-42.15-7.28l.33-.84c30.6,11.75,67.45,7.59,88.75-1.25a136,136,0,0,0,24.54-13.37c9.73-6.7,16.61-13.37,18.75-17.29,1.87-3.41,1.74-5.19,1.31-6.08a2.13,2.13,0,0,0-1.25-1.11.53.53,0,0,0-.15,0l.16-.88a.56.56,0,0,1,.16,0,3.07,3.07,0,0,1,1.89,1.6C252.68,91.62,252.23,93.94,250.58,97Z"/><path d="M239.05,247.33h0a7.51,7.51,0,0,1-2.41.35,23.78,23.78,0,0,1-8.39-2.1c-12.13-6.6-14-7.05-15.88-7.54a20.81,20.81,0,0,1-3.81-1.29,4.48,4.48,0,0,1-.44-.2,7.08,7.08,0,0,1-.87-.48c-3.8-2.45-2.54-6.57-1.84-8.89a9.32,9.32,0,0,0,.36-1.4c.16-1.43-1.6-3.9-2.29-4.74-10.38-12.78-7-29.38-7-29.55l.87.19c0,.16-3.28,16.36,6.82,28.79.1.13,2.73,3.3,2.5,5.4a9,9,0,0,1-.4,1.57c-.74,2.42-1.82,6,1.77,8.05a5.87,5.87,0,0,0,.87.43s0,0,0,0a22,22,0,0,0,3.65,1.23c2,.5,3.86,1,16.07,7.6,0,0,5.59,2.57,9.34,1.91a6.35,6.35,0,0,0,.78-.19Z"/><path d="M254.88,251.33a2.4,2.4,0,0,1-1.44,1.94,2.44,2.44,0,0,1-1,.17c-2.68,0-7.91-2.69-13.4-6.11h0l-1-.65c-8.51-5.38-17.29-12.15-17.92-13a8.11,8.11,0,0,1-1.26-5.89,7.34,7.34,0,0,1,.42-1.61,3.07,3.07,0,0,1,.17-.42c.48-1.1,1.54-5.26-5.43-12.6-3.35-3.53-14.36-15.91-15.49-27.24l.88-.09c1.12,11.06,12,23.23,15.25,26.71,5.8,6.09,6.34,10.19,6,12.36a4.72,4.72,0,0,1-.36,1.22,5.37,5.37,0,0,0-.21.56,7.37,7.37,0,0,0,.8,6.47c1.1,1.51,25.31,19.44,31.5,19.44a2.08,2.08,0,0,0,.79-.13,1.51,1.51,0,0,0,.9-1.26c.63-4.12-7.47-14.83-10.85-17.75-3.93-3.4-5.91-10.29-6-10.57s-.5-5.87-1-14.34c0-.45,0-.92-.08-1.41-.13-2.28-.26-4.76-.38-7.35-.59-12.29-4.33-76.91-4.79-84.77,0,0,0-.11,0-.15,0-.38,0-.6,0-.63h.21l.69,0s0,.1,0,.25c.27,4.63,4.21,72.66,4.81,85.31.1,2.18.22,4.27.33,6.24,0,.48.05,1,.08,1.43.53,9,1.05,15.23,1.06,15.31a33.83,33.83,0,0,0,1.46,3.83,18.51,18.51,0,0,0,4.24,6.23C246.8,235.42,255.6,246.62,254.88,251.33Z"/><path d="M143.75,94.65l-.67-.61a114.41,114.41,0,0,1,12.43-11.35c6.7-5.26,16.62-11.66,25.83-12.26l1.51-.1c13.47-.92,30.24-2,41.38,19.34l-.8.42c-10.86-20.88-27.31-19.76-40.52-18.87l-1.51.1C164.16,72.45,144,94.43,143.75,94.65Z"/><path class="cls-4" d="M154.77,26.8s-8.41,8-23.76,9.62c0,0-5.62-1.57-8,1.67s.84,8.89,5.44,7.32c0,0,.47,9.72,5,13.7,0,0,3.55,5.28,9,3.4a18.3,18.3,0,0,0,11.92-13.18C156,42.54,156,30.93,154.77,26.8Z"/><path d="M147.34,46.33h-3.5v-.9h2.56c-.51-7.47-4.89-10.17-4.93-10.2l.46-.77c.2.13,5,3.1,5.39,11.4Z"/><path d="M143.58,53.43a3.2,3.2,0,0,1-2.54-1,3.6,3.6,0,0,1-.46-3.35l.09-.34h5.76v.44c0,.17,0,4-2.42,4.24Zm-2.2-3.81a2.15,2.15,0,0,0,2.56,2.9c1.19-.1,1.5-2,1.57-2.9Z"/><circle class="cls-5" cx="134.53" cy="47.74" r="3.44"/><path class="cls-5" d="M155.06,45.34a3.45,3.45,0,1,0-1,5.11A42.26,42.26,0,0,0,155.06,45.34Z"/><path d="M246.55,70.39A130.78,130.78,0,0,0,97.71,4.61l-.07,0A131.1,131.1,0,0,0,1.11,114v0A132.27,132.27,0,0,0,0,131.15c0,72.12,58.66,130.78,130.77,130.78a130.07,130.07,0,0,0,77.34-25.38c.27-.19.54-.4.82-.61,0,0,0,0,0,0a5.87,5.87,0,0,1-.87-.43l-.79.58A129.69,129.69,0,0,1,99.13,257.13l-.08,0H99a127.42,127.42,0,0,1-14.13-4.45h0A130.11,130.11,0,0,1,.9,131.15q0-6.24.58-12.35C7.72,53,63.33,1.27,130.77,1.27a129.42,129.42,0,0,1,28.17,3.08h0A130.35,130.35,0,0,1,245.8,70.89c.14.27.29.55.42.82,0,0,.05,0,.06-.08a5.6,5.6,0,0,1,.7-.45h0ZM249,75.27c-.15-.31-.29-.62-.45-.93a6.92,6.92,0,0,1-.59.83l.42.89A129.72,129.72,0,0,1,236.89,206c-.27.39-.56.78-.84,1.16,0,.49.06,1,.08,1.41q.44-.56.84-1.14A130.59,130.59,0,0,0,249,75.27Zm-29.77,150.9a7.34,7.34,0,0,0-.42,1.61c.4-.36.79-.73,1.19-1.11a5.37,5.37,0,0,1,.21-.56,4.72,4.72,0,0,0,.36-1.22C220.12,225.33,219.67,225.75,219.23,226.17Z"/><path class="cls-6" d="M249.8,96.52c-2.14,3.92-9,10.59-18.75,17.29-.3-9.58-3.89-18.24-6.8-23.75h0a10.9,10.9,0,0,1,.53-2.16c.31-.5.49-1.9.77-4.35s.77-6.54,1.47-7c.43-.31,1.25-.79,1.86-.52s.84.92,1,2a92.55,92.55,0,0,1,1,9.89l-.06.37.31.14c.41.21.66.31,15.05-16.73,0,0,.05,0,.06-.08a5.6,5.6,0,0,1,.7-.45h0a3.69,3.69,0,0,1,2.35-.54.38.38,0,0,1,.36.28c.23.64-.3,2.11-1.14,3.42a6.92,6.92,0,0,1-.59.83c-.1.12-.2.25-.31.37-.5.54-1.58,1.86-3.21,3.91-2.8,3.53-6.34,8.1-6.38,8.14l.71.55s3.07-4,5.76-7.34c.77.09,2.38.51,2.95,1.48a2,2,0,0,1,0,1.9,20.05,20.05,0,0,1-4.87,6.26l.57.7A21.17,21.17,0,0,0,248,85c.57.77,1.82,2.8.6,4.87C247,92.73,246,94.07,246,94.09l.73.51c.05,0,1-1.38,2.67-4.26a5.16,5.16,0,0,0,.44-1,2.13,2.13,0,0,1,1.25,1.11C251.54,91.33,251.67,93.11,249.8,96.52Z"/><path class="cls-6" d="M254,251.19a1.51,1.51,0,0,1-.9,1.26,2.08,2.08,0,0,1-.79.13c-6.19,0-30.4-17.93-31.5-19.44a7.37,7.37,0,0,1-.8-6.47,5.37,5.37,0,0,1,.21-.56,4.72,4.72,0,0,0,.36-1.22c.38-2.17-.16-6.27-6-12.36-3.29-3.48-14.13-15.65-15.25-26.71l-.88.09c1.13,11.33,12.14,23.71,15.49,27.24,7,7.34,5.91,11.5,5.43,12.6a3.07,3.07,0,0,0-.17.42,7.34,7.34,0,0,0-.42,1.61,8.11,8.11,0,0,0,1.26,5.89c.63.86,9.41,7.63,17.92,13-3.75.66-9.31-1.89-9.34-1.91-12.21-6.64-14.08-7.1-16.07-7.6a22,22,0,0,1-3.65-1.23s0,0,0,0a5.87,5.87,0,0,1-.87-.43c-3.59-2.06-2.51-5.63-1.77-8.05a9,9,0,0,0,.4-1.57c.23-2.1-2.4-5.27-2.5-5.4-10.1-12.43-6.85-28.63-6.82-28.79l-.87-.19c0,.17-3.38,16.77,7,29.55.69.84,2.45,3.31,2.29,4.74a9.32,9.32,0,0,1-.36,1.4c-.7,2.32-2,6.44,1.84,8.89A129.69,129.69,0,0,1,99.13,257.13c1.17.24,2.36.46,3.57.64,26.76,4.08,42.19-6.59,42.19-6.59,45.32-28.7,53-62.18,53.08-73s-4.07-32.46,4.32-41.79c4.79-5.33,13.52-11.64,20.1-16.08,2.91-1.67,5.76-3.44,8.49-5.3.46,7.86,4.2,72.48,4.79,84.77.12,2.59.25,5.07.38,7.35,0,.49.06,1,.08,1.41.52,8.47,1,14.2,1,14.34s2.06,7.17,6,10.57C246.52,236.36,254.62,247.07,254,251.19Z"/></g></g></svg>