<svg xmlns="http://www.w3.org/2000/svg" viewBox="0 0 33.47 41.44"><defs><style>.cls-1{fill:#993838;}.cls-2{fill:#feeed8;}</style></defs><g id="Layer_2" data-name="Layer 2"><g id="graphics"><path class="cls-1" d="M7.33,16.1c0-.81,0-1.56,0-2.31q0-4.52.1-9A5.5,5.5,0,0,1,8.19,2,3.85,3.85,0,0,1,12.12,0a3.77,3.77,0,0,1,3.53,3.54c.13,1.06.11,2.14.15,3.21s0,2,.08,2.94a12,12,0,0,1,1.41-.26,5,5,0,0,1,3.4.83,3.68,3.68,0,0,1,.64.61,8.71,8.71,0,0,1,.51.74,5,5,0,0,1,3.47-.08A3.8,3.8,0,0,1,27.71,14a3.79,3.79,0,0,1,1.4-.27A4.17,4.17,0,0,1,33,16.45a7,7,0,0,1,.46,2.72c0,1.18,0,2.36,0,3.54,0,1,0,2-.07,3a23.43,23.43,0,0,1-2,7.71,37.63,37.63,0,0,1-2,3.75c-.69,1.2-1.37,2.4-2,3.6a1.19,1.19,0,0,1-1.08.62H11.57a1.36,1.36,0,0,1-1.33-.84C9.3,38.8,8.37,37,7.35,35.23A75.56,75.56,0,0,1,3,26.31,57.53,57.53,0,0,0,.5,21a3.6,3.6,0,0,1,1.68-5.13,5.08,5.08,0,0,1,4.9.11ZM18.87,39h6.45a.3.3,0,0,0,.31-.18c.53-.93,1.08-1.86,1.62-2.79A32.93,32.93,0,0,0,29.4,32a20.72,20.72,0,0,0,1.49-6C31,25,31,24,31,23c0-1.23,0-2.45,0-3.68a8,8,0,0,0-.1-1.47,1.9,1.9,0,0,0-1.1-1.53c-.9-.36-1.41-.14-1.72.72-.12.33-.16.69-.25,1a1.22,1.22,0,0,1-1.41.9,1.2,1.2,0,0,1-1-1.38c0-.27.1-.54.12-.81a4.54,4.54,0,0,0-.18-2.07,1.39,1.39,0,0,0-1.22-1,4.44,4.44,0,0,0-.63,0A1.19,1.19,0,0,0,22.15,15a11.1,11.1,0,0,0,0,1.29,1.23,1.23,0,0,1-1.09,1.3,1.19,1.19,0,0,1-1.34-1.09,11.75,11.75,0,0,1,0-2.78A1.36,1.36,0,0,0,18.8,12a3.45,3.45,0,0,0-1.46-.14,1.26,1.26,0,0,0-1,.58A2.1,2.1,0,0,0,16,13.69c0,.73.06,1.46.06,2.2a1.18,1.18,0,0,1-1.1,1.2,1.17,1.17,0,0,1-1.3-.95,8.11,8.11,0,0,1-.16-1.38c0-.52,0-1,0-1.56,0-1,0-1.95-.07-2.92,0-1.94-.09-3.89-.16-5.83a5,5,0,0,0-.21-1.14,1.15,1.15,0,0,0-.61-.72,1.74,1.74,0,0,0-2.22.67,2.83,2.83,0,0,0-.37,1.39C9.83,8.1,9.79,11.54,9.75,15c0,1.48,0,3-.05,4.44a1.3,1.3,0,0,1-.24.79,1.18,1.18,0,0,1-1.15.49,1.17,1.17,0,0,1-1-.75,4.34,4.34,0,0,0-.75-1.26A2.73,2.73,0,0,0,3,18.18a1.16,1.16,0,0,0-.4,1.64c.17.32.35.63.52.94.88,1.64,1.6,3.35,2.33,5.06A68.59,68.59,0,0,0,8.7,32.65q1.73,3.1,3.42,6.22c.08.13.17.12.28.12Z"/><path class="cls-2" d="M18.87,39H12.4c-.11,0-.2,0-.28-.12q-1.69-3.12-3.42-6.22a68.59,68.59,0,0,1-3.22-6.83C4.75,24.11,4,22.4,3.15,20.76c-.17-.31-.35-.62-.52-.94A1.16,1.16,0,0,1,3,18.18a2.73,2.73,0,0,1,3.56.52A4.34,4.34,0,0,1,7.34,20a1.17,1.17,0,0,0,1,.75,1.18,1.18,0,0,0,1.15-.49,1.3,1.3,0,0,0,.24-.79c0-1.48,0-3,.05-4.44,0-3.45.08-6.89.13-10.34a2.83,2.83,0,0,1,.37-1.39,1.74,1.74,0,0,1,2.22-.67,1.15,1.15,0,0,1,.61.72,5,5,0,0,1,.21,1.14c.07,1.94.11,3.89.16,5.83,0,1,.06,1.94.07,2.92,0,.52-.06,1,0,1.56a8.11,8.11,0,0,0,.16,1.38,1.17,1.17,0,0,0,1.3.95,1.18,1.18,0,0,0,1.1-1.2c0-.74,0-1.47-.06-2.2a2.1,2.1,0,0,1,.35-1.22,1.26,1.26,0,0,1,1-.58A3.45,3.45,0,0,1,18.8,12a1.36,1.36,0,0,1,.91,1.64,11.75,11.75,0,0,0,0,2.78,1.19,1.19,0,0,0,1.34,1.09,1.23,1.23,0,0,0,1.09-1.3,11.1,11.1,0,0,1,0-1.29,1.19,1.19,0,0,1,1.36-1.21,4.44,4.44,0,0,1,.63,0,1.39,1.39,0,0,1,1.22,1,4.54,4.54,0,0,1,.18,2.07c0,.27-.09.54-.12.81a1.2,1.2,0,0,0,1,1.38,1.22,1.22,0,0,0,1.41-.9c.09-.35.13-.71.25-1,.31-.86.82-1.08,1.72-.72a1.9,1.9,0,0,1,1.1,1.53,8,8,0,0,1,.1,1.47c0,1.23,0,2.45,0,3.68,0,1,0,2-.11,2.93a20.72,20.72,0,0,1-1.49,6A32.93,32.93,0,0,1,27.25,36c-.54.93-1.09,1.86-1.62,2.79a.3.3,0,0,1-.31.18Z"/></g></g></svg>