<svg xmlns="http://www.w3.org/2000/svg" viewBox="0 0 1197 24.79">
    <defs>
        <style>
            .cls-1 {
                fill: #d77043;
                stroke-width: 5px;
            }
        </style>
    </defs>
    <g id="Layer_2" data-name="Layer 2">
        <g id="graphics">
            <path class="cls-1"
                d="M600.56,2.31,598.93,17a.43.43,0,0,1-.86,0L596.44,2.31a2.07,2.07,0,1,1,4.12-.46A1.77,1.77,0,0,1,600.56,2.31Z" />
            <path class="cls-1"
                d="M594.2,2.7l3.49,14.37a.43.43,0,0,1-.8.29L590.33,4.11a2.08,2.08,0,1,1,3.72-1.84A1.84,1.84,0,0,1,594.2,2.7Z" />
            <path class="cls-1"
                d="M588.37,5.24l8.19,12.31a.43.43,0,0,1-.66.55L585.2,7.9a2.08,2.08,0,0,1,2.87-3A3.27,3.27,0,0,1,588.37,5.24Z" />
            <path class="cls-1"
                d="M583.75,9.63l11.9,8.77a.42.42,0,0,1,.1.6.44.44,0,0,1-.52.14l-13.54-5.93a2.08,2.08,0,0,1,1.66-3.81A2.6,2.6,0,0,1,583.75,9.63Z" />
            <path class="cls-1"
                d="M580.91,15.33,595.1,19.5a.42.42,0,0,1,.29.53.43.43,0,0,1-.44.31l-14.76-.94a2.08,2.08,0,0,1,.27-4.15A2.23,2.23,0,0,1,580.91,15.33Z" />
            <path class="cls-1"
                d="M616.8,19.4l-14.75.94a.43.43,0,0,1-.15-.85l14.19-4.16a2.08,2.08,0,0,1,1.17,4A2.46,2.46,0,0,1,616.8,19.4Z" />
            <path class="cls-1"
                d="M615.31,13.2l-13.54,5.93a.43.43,0,0,1-.57-.22.43.43,0,0,1,.14-.52l11.91-8.76A2.08,2.08,0,0,1,615.71,13,1.94,1.94,0,0,1,615.31,13.2Z" />
            <path class="cls-1"
                d="M611.79,7.9l-10.7,10.2a.43.43,0,0,1-.65-.55l8.19-12.31a2.08,2.08,0,0,1,3.46,2.3A2,2,0,0,1,611.79,7.9Z" />
            <path class="cls-1"
                d="M606.67,4.11l-6.56,13.25a.43.43,0,0,1-.58.19.41.41,0,0,1-.23-.48L602.79,2.7a2.08,2.08,0,1,1,4,1A2.73,2.73,0,0,1,606.67,4.11Z" />
            <rect class="cls-1" x="8.14" y="18.52" width="576.55" height="1.05" rx="0.52" />
            <path class="cls-1" d="M11.49,19A5.75,5.75,0,1,1,5.74,13.3,5.75,5.75,0,0,1,11.49,19Z" />
            <path class="cls-1" d="M1185.51,19a5.75,5.75,0,1,0,5.74-5.74A5.75,5.75,0,0,0,1185.51,19Z" />
            <rect class="cls-1" x="612.31" y="18.52" width="576.93" height="1.05" rx="0.52"
                transform="translate(1801.55 38.08) rotate(180)" />
        </g>
    </g>
</svg>