<svg xmlns="http://www.w3.org/2000/svg" viewBox="0 0 1197 24.79"><defs><style>.cls-1{fill:#d77043;}</style></defs><g id="Layer_2" data-name="Layer 2"><g id="graphics"><path class="cls-1" d="M600.56,22.48l-1.63-14.7a.43.43,0,0,0-.86,0l-1.63,14.7a2.07,2.07,0,1,0,4.12.46A1.77,1.77,0,0,0,600.56,22.48Z"/><path class="cls-1" d="M594.2,22.08l3.49-14.36a.43.43,0,0,0-.8-.29l-6.56,13.24a2.08,2.08,0,1,0,3.72,1.85A1.76,1.76,0,0,0,594.2,22.08Z"/><path class="cls-1" d="M588.37,19.54l8.19-12.31a.42.42,0,0,0-.12-.59.44.44,0,0,0-.54,0L585.2,16.89a2.08,2.08,0,1,0,2.87,3A2.52,2.52,0,0,0,588.37,19.54Z"/><path class="cls-1" d="M583.75,15.15l11.9-8.76a.43.43,0,0,0-.42-.74l-13.54,5.93a2.07,2.07,0,1,0,1.66,3.8A2,2,0,0,0,583.75,15.15Z"/><path class="cls-1" d="M580.91,9.45,595.1,5.29a.43.43,0,0,0,.29-.54.42.42,0,0,0-.44-.3l-14.76.94a2.07,2.07,0,1,0,.27,4.14A2.23,2.23,0,0,0,580.91,9.45Z"/><path class="cls-1" d="M616.8,5.39l-14.75-.94a.43.43,0,0,0-.15.84l14.19,4.16a2.07,2.07,0,0,0,1.17-4A2.46,2.46,0,0,0,616.8,5.39Z"/><path class="cls-1" d="M615.31,11.58,601.77,5.65a.45.45,0,0,0-.57.22.43.43,0,0,0,.14.52l11.91,8.77a2.08,2.08,0,0,0,2.46-3.35A2,2,0,0,0,615.31,11.58Z"/><path class="cls-1" d="M611.79,16.89l-10.7-10.2a.42.42,0,0,0-.6,0,.42.42,0,0,0,0,.54l8.19,12.3a2.08,2.08,0,1,0,3.46-2.3A1.68,1.68,0,0,0,611.79,16.89Z"/><path class="cls-1" d="M606.67,20.68,600.11,7.43a.44.44,0,0,0-.58-.2.42.42,0,0,0-.23.49l3.49,14.37a2.08,2.08,0,1,0,4-1A2.73,2.73,0,0,0,606.67,20.68Z"/><rect class="cls-1" x="8.14" y="5.22" width="576.55" height="1.05" rx="0.52"/><path class="cls-1" d="M11.49,5.74a5.75,5.75,0,1,0-5.75,5.75A5.74,5.74,0,0,0,11.49,5.74Z"/><path class="cls-1" d="M1185.51,5.74a5.75,5.75,0,1,1,5.74,5.75A5.74,5.74,0,0,1,1185.51,5.74Z"/><rect class="cls-1" x="612.31" y="5.22" width="576.93" height="1.05" rx="0.52" transform="translate(1801.55 11.49) rotate(180)"/></g></g></svg>